<svg width="44" height="44" viewBox="0 0 44 44" fill="none" xmlns="http://www.w3.org/2000/svg">
<path d="M5.48213 5.5H4.125V38.5H39.875V37.1759L5.5055 37.1071L5.48213 5.5ZM23.375 6.875C23.375 6.11463 22.759 5.5 22 5.5H17.875C17.1146 5.5 16.5 6.11463 16.5 6.875V34.375H23.375V6.875ZM15.125 15.125C15.125 14.366 14.509 13.75 13.75 13.75H9.625C8.86462 13.75 8.25 14.366 8.25 15.125V34.375H15.125V15.125ZM31.625 23.375C31.625 22.6146 31.009 22 30.25 22H26.125C25.3646 22 24.75 22.6146 24.75 23.375V34.375H31.625V23.375ZM38.5 30.25H34.375C33.6146 30.25 33 30.8646 33 31.625V34.375H39.875V31.625C39.875 30.8646 39.259 30.25 38.5 30.25Z" fill="#05074A"/>
</svg>
