<svg width="18" height="18" viewBox="0 0 18 18" fill="none" xmlns="http://www.w3.org/2000/svg">
<path d="M2.57143 0C1.15313 0 0 1.15313 0 2.57143V15.4286C0 16.8469 1.15313 18 2.57143 18H6.51696V12.142H4.39554V9H6.51696V7.64598C6.51696 4.14643 8.1 2.52321 11.5393 2.52321C12.1902 2.52321 13.3152 2.65179 13.7772 2.78036V5.625C13.5362 5.60089 13.1143 5.58482 12.5879 5.58482C10.9004 5.58482 10.2496 6.22366 10.2496 7.88304V9H13.6085L13.0299 12.142H10.2455V18H15.4286C16.8469 18 18 16.8469 18 15.4286V2.57143C18 1.15313 16.8469 0 15.4286 0H2.57143Z" fill="white"/>
</svg>
