<svg width="640" height="376" viewBox="0 0 640 376" fill="none" xmlns="http://www.w3.org/2000/svg">
<g filter="url(#filter0_d_1_236)">
<path opacity="0.18" fill-rule="evenodd" clip-rule="evenodd" d="M474.603 262.104C474.759 267.46 470.121 270.202 464.24 268.225L207.206 181.867C201.325 179.89 196.433 173.952 196.277 168.59L192.235 30.0438C192.079 24.6879 196.718 21.9455 202.598 23.9224L459.625 110.281C465.506 112.258 470.398 118.202 470.554 123.558L474.596 262.104L474.603 262.104Z" fill="white"/>
<path fill-rule="evenodd" clip-rule="evenodd" d="M474.603 262.104C474.759 267.46 470.121 270.202 464.24 268.225L207.206 181.867C201.325 179.89 196.433 173.952 196.277 168.59L192.235 30.0438C192.079 24.6879 196.718 21.9455 202.598 23.9224L459.625 110.281C465.506 112.258 470.398 118.202 470.554 123.558L474.596 262.104L474.603 262.104Z" fill="url(#paint0_linear_1_236)"/>
<path d="M228.197 134.296L226.335 139.252L225.624 138.999L227.25 134.671L227.215 134.659L225.48 134.951L225.709 134.341L227.486 134.042L228.197 134.296ZM228.024 139.855L228.187 139.42L230.798 138.321C231.105 138.192 231.361 138.077 231.566 137.974C231.772 137.87 231.936 137.762 232.058 137.65C232.183 137.538 232.274 137.405 232.331 137.254C232.396 137.079 232.403 136.911 232.352 136.748C232.302 136.586 232.205 136.439 232.061 136.309C231.917 136.179 231.739 136.076 231.527 136C231.301 135.92 231.09 135.889 230.892 135.908C230.696 135.926 230.526 135.989 230.382 136.097C230.239 136.205 230.133 136.354 230.062 136.542L229.385 136.301C229.494 136.01 229.669 135.784 229.91 135.621C230.151 135.458 230.432 135.364 230.751 135.339C231.072 135.315 231.404 135.364 231.746 135.486C232.09 135.609 232.372 135.779 232.592 135.996C232.811 136.214 232.958 136.454 233.03 136.716C233.103 136.978 233.092 137.236 232.996 137.491C232.928 137.674 232.821 137.838 232.678 137.984C232.536 138.129 232.33 138.275 232.059 138.419C231.79 138.563 231.43 138.727 230.979 138.912L229.213 139.632L229.199 139.671L231.928 140.645L231.728 141.178L228.024 139.855ZM234.871 142.377C234.493 142.242 234.176 142.066 233.921 141.851C233.668 141.636 233.491 141.4 233.39 141.143C233.292 140.884 233.284 140.623 233.366 140.357L234.089 140.615C234.044 140.78 234.057 140.942 234.128 141.099C234.2 141.254 234.317 141.397 234.479 141.526C234.64 141.655 234.834 141.76 235.06 141.84C235.312 141.93 235.549 141.973 235.772 141.968C235.995 141.964 236.187 141.915 236.347 141.822C236.508 141.73 236.621 141.596 236.686 141.422C236.755 141.24 236.762 141.06 236.707 140.883C236.653 140.704 236.537 140.539 236.36 140.386C236.184 140.233 235.946 140.103 235.648 139.997L235.178 139.829L235.378 139.297L235.848 139.465C236.081 139.548 236.299 139.585 236.501 139.577C236.706 139.57 236.882 139.519 237.03 139.425C237.18 139.332 237.287 139.199 237.353 139.025C237.416 138.857 237.427 138.695 237.385 138.539C237.344 138.384 237.256 138.243 237.122 138.116C236.989 137.99 236.815 137.888 236.599 137.811C236.396 137.739 236.193 137.702 235.99 137.701C235.789 137.699 235.61 137.736 235.453 137.814C235.297 137.89 235.183 138.008 235.112 138.17L234.424 137.924C234.533 137.668 234.711 137.474 234.958 137.341C235.206 137.206 235.491 137.134 235.813 137.124C236.137 137.116 236.468 137.172 236.807 137.293C237.17 137.422 237.458 137.596 237.672 137.813C237.885 138.028 238.024 138.262 238.088 138.513C238.152 138.765 238.14 139.007 238.052 139.241C237.947 139.52 237.771 139.727 237.523 139.862C237.277 139.998 236.991 140.05 236.667 140.02L236.652 140.059C237.004 140.243 237.243 140.48 237.371 140.769C237.499 141.056 237.504 141.357 237.386 141.672C237.285 141.941 237.107 142.152 236.852 142.305C236.6 142.456 236.302 142.54 235.958 142.556C235.614 142.572 235.251 142.513 234.871 142.377ZM238.297 142.37L238.483 141.877L242.358 139.351L242.782 139.503L242.495 140.268L242.208 140.165L239.28 142.073L239.266 142.112L242.741 143.353L242.541 143.885L238.297 142.37ZM240.68 144.374L241.118 143.207L241.204 142.977L242.542 139.417L243.218 139.658L241.356 144.615L240.68 144.374Z" fill="white"/>
<path d="M401.446 197.019C401.775 197.139 402.085 197.31 402.376 197.532C402.666 197.754 402.903 198.034 403.084 198.373C403.267 198.709 403.363 199.114 403.373 199.587C403.383 200.06 403.271 200.609 403.037 201.233C402.81 201.838 402.541 202.35 402.229 202.771C401.92 203.19 401.579 203.515 401.205 203.745C400.833 203.976 400.435 204.11 400.012 204.147C399.591 204.185 399.154 204.123 398.701 203.961C398.251 203.8 397.877 203.581 397.581 203.304C397.287 203.026 397.078 202.711 396.954 202.361C396.834 202.009 396.81 201.642 396.881 201.261L397.839 201.604C397.809 201.947 397.883 202.266 398.064 202.562C398.247 202.856 398.551 203.079 398.975 203.23C399.596 203.452 400.171 203.398 400.701 203.068C401.234 202.739 401.658 202.156 401.971 201.319L401.909 201.297C401.692 201.43 401.458 201.528 401.206 201.591C400.954 201.654 400.691 201.678 400.417 201.663C400.144 201.649 399.868 201.591 399.591 201.492C399.13 201.327 398.744 201.08 398.431 200.75C398.122 200.418 397.916 200.042 397.812 199.621C397.712 199.198 397.744 198.768 397.909 198.33C398.065 197.913 398.317 197.572 398.667 197.305C399.019 197.037 399.435 196.872 399.912 196.809C400.393 196.748 400.904 196.817 401.446 197.019ZM401.172 197.749C400.842 197.631 400.519 197.595 400.202 197.64C399.889 197.683 399.611 197.795 399.369 197.974C399.13 198.153 398.957 198.383 398.851 198.667C398.745 198.95 398.721 199.234 398.781 199.519C398.844 199.803 398.978 200.059 399.183 200.288C399.391 200.516 399.661 200.689 399.99 200.807C400.239 200.896 400.486 200.937 400.732 200.932C400.978 200.925 401.208 200.878 401.421 200.791C401.638 200.703 401.827 200.583 401.988 200.432C402.149 200.279 402.267 200.102 402.343 199.9C402.442 199.635 402.46 199.359 402.395 199.072C402.333 198.786 402.197 198.524 401.986 198.285C401.778 198.048 401.507 197.869 401.172 197.749ZM408.346 199.486C408.675 199.606 408.985 199.778 409.276 200C409.566 200.222 409.803 200.502 409.984 200.841C410.167 201.177 410.263 201.582 410.273 202.055C410.283 202.528 410.171 203.076 409.937 203.701C409.71 204.305 409.441 204.818 409.129 205.238C408.82 205.658 408.479 205.983 408.105 206.213C407.733 206.444 407.335 206.578 406.912 206.615C406.491 206.653 406.054 206.59 405.601 206.429C405.151 206.267 404.777 206.049 404.48 205.772C404.187 205.493 403.978 205.179 403.854 204.828C403.734 204.476 403.71 204.11 403.781 203.729L404.739 204.071C404.709 204.415 404.783 204.734 404.964 205.029C405.147 205.323 405.451 205.546 405.875 205.698C406.496 205.92 407.071 205.866 407.601 205.536C408.134 205.207 408.558 204.624 408.871 203.787L408.809 203.764C408.592 203.898 408.358 203.996 408.106 204.059C407.854 204.122 407.591 204.146 407.317 204.131C407.044 204.116 406.768 204.059 406.491 203.96C406.03 203.795 405.644 203.548 405.331 203.217C405.022 202.886 404.816 202.51 404.712 202.088C404.612 201.666 404.644 201.236 404.809 200.797C404.965 200.381 405.217 200.04 405.567 199.773C405.919 199.505 406.335 199.34 406.812 199.277C407.293 199.215 407.804 199.285 408.346 199.486ZM408.072 200.217C407.742 200.099 407.419 200.062 407.102 200.107C406.789 200.151 406.511 200.263 406.269 200.442C406.03 200.62 405.857 200.851 405.751 201.134C405.645 201.418 405.621 201.702 405.681 201.987C405.744 202.27 405.878 202.527 406.083 202.756C406.291 202.983 406.561 203.156 406.89 203.274C407.139 203.363 407.386 203.405 407.631 203.4C407.878 203.392 408.108 203.345 408.321 203.259C408.538 203.171 408.727 203.051 408.888 202.9C409.049 202.747 409.167 202.569 409.243 202.368C409.342 202.102 409.36 201.826 409.295 201.539C409.233 201.254 409.097 200.991 408.886 200.753C408.678 200.515 408.407 200.337 408.072 200.217ZM415.629 201.835L409.985 209.051L409.137 208.747L414.781 201.531L415.629 201.835ZM414.043 209.342L414.267 208.744L417.842 207.236C418.262 207.06 418.612 206.901 418.893 206.761C419.175 206.618 419.4 206.47 419.568 206.316C419.738 206.162 419.863 205.98 419.941 205.772C420.03 205.533 420.04 205.302 419.969 205.078C419.901 204.855 419.769 204.655 419.571 204.476C419.374 204.298 419.13 204.156 418.84 204.053C418.531 203.942 418.241 203.9 417.97 203.926C417.702 203.951 417.47 204.037 417.272 204.185C417.076 204.333 416.93 204.537 416.833 204.796L415.907 204.465C416.056 204.066 416.296 203.755 416.626 203.532C416.956 203.309 417.34 203.18 417.777 203.145C418.217 203.112 418.671 203.179 419.14 203.346C419.611 203.515 419.997 203.748 420.298 204.047C420.599 204.345 420.799 204.674 420.899 205.034C420.999 205.393 420.983 205.748 420.852 206.098C420.758 206.348 420.613 206.573 420.416 206.774C420.222 206.974 419.94 207.173 419.568 207.371C419.201 207.569 418.708 207.794 418.09 208.048L415.672 209.036L415.652 209.089L419.39 210.426L419.116 211.156L414.043 209.342ZM394.776 215.005C394.184 214.794 393.731 214.477 393.417 214.056C393.104 213.633 392.935 213.121 392.91 212.523C392.886 211.921 393.012 211.251 393.289 210.512C393.565 209.777 393.91 209.188 394.325 208.747C394.743 208.304 395.212 208.019 395.731 207.894C396.254 207.767 396.808 207.808 397.394 208.018C397.981 208.228 398.43 208.545 398.743 208.971C399.059 209.395 399.229 209.908 399.253 210.509C399.28 211.109 399.156 211.776 398.881 212.511C398.604 213.251 398.257 213.842 397.842 214.286C397.427 214.728 396.96 215.012 396.441 215.137C395.922 215.261 395.367 215.217 394.776 215.005ZM395.05 214.274C395.636 214.484 396.181 214.408 396.685 214.046C397.189 213.684 397.607 213.06 397.938 212.174C398.159 211.585 398.273 211.057 398.278 210.59C398.287 210.123 398.193 209.732 397.997 209.416C397.804 209.101 397.513 208.874 397.126 208.735C396.545 208.527 395.999 208.607 395.491 208.975C394.982 209.341 394.563 209.965 394.232 210.849C394.011 211.438 393.897 211.964 393.889 212.428C393.881 212.893 393.975 213.281 394.169 213.594C394.366 213.908 394.659 214.135 395.05 214.274ZM401.781 217.51C401.262 217.325 400.829 217.084 400.479 216.789C400.133 216.494 399.89 216.17 399.753 215.817C399.618 215.463 399.607 215.104 399.72 214.74L400.709 215.093C400.648 215.32 400.666 215.541 400.764 215.757C400.862 215.97 401.022 216.165 401.243 216.343C401.465 216.52 401.73 216.664 402.039 216.774C402.384 216.898 402.71 216.956 403.015 216.95C403.32 216.943 403.583 216.877 403.802 216.749C404.022 216.622 404.177 216.439 404.267 216.2C404.36 215.95 404.37 215.703 404.295 215.46C404.22 215.215 404.062 214.988 403.82 214.778C403.578 214.569 403.253 214.391 402.844 214.245L402.2 214.015L402.474 213.284L403.118 213.514C403.437 213.629 403.736 213.68 404.013 213.669C404.293 213.658 404.534 213.589 404.737 213.461C404.942 213.333 405.089 213.15 405.179 212.911C405.265 212.68 405.28 212.459 405.224 212.245C405.167 212.032 405.047 211.838 404.862 211.664C404.681 211.491 404.442 211.352 404.146 211.246C403.869 211.147 403.591 211.096 403.313 211.095C403.038 211.092 402.793 211.143 402.578 211.25C402.363 211.354 402.207 211.517 402.11 211.738L401.167 211.401C401.317 211.05 401.561 210.783 401.899 210.601C402.239 210.416 402.629 210.317 403.07 210.304C403.514 210.292 403.968 210.369 404.431 210.534C404.928 210.712 405.323 210.95 405.615 211.248C405.908 211.543 406.098 211.864 406.186 212.209C406.273 212.554 406.257 212.887 406.136 213.208C405.993 213.591 405.751 213.875 405.412 214.06C405.075 214.246 404.684 214.318 404.239 214.277L404.219 214.33C404.701 214.583 405.029 214.907 405.204 215.304C405.38 215.698 405.387 216.111 405.225 216.543C405.086 216.912 404.843 217.202 404.494 217.411C404.149 217.619 403.741 217.734 403.269 217.756C402.798 217.779 402.302 217.697 401.781 217.51ZM408.727 219.994C408.135 219.783 407.682 219.466 407.368 219.045C407.055 218.622 406.886 218.111 406.861 217.512C406.837 216.911 406.963 216.24 407.241 215.501C407.516 214.766 407.861 214.178 408.276 213.736C408.694 213.293 409.163 213.009 409.682 212.883C410.205 212.756 410.759 212.797 411.346 213.007C411.932 213.217 412.381 213.534 412.694 213.96C413.01 214.384 413.18 214.897 413.204 215.498C413.231 216.098 413.107 216.765 412.832 217.501C412.555 218.24 412.208 218.832 411.793 219.275C411.378 219.717 410.911 220.001 410.392 220.126C409.873 220.25 409.318 220.206 408.727 219.994ZM409.001 219.264C409.587 219.473 410.132 219.397 410.636 219.035C411.14 218.673 411.558 218.049 411.89 217.163C412.11 216.575 412.224 216.046 412.23 215.579C412.238 215.113 412.144 214.721 411.948 214.405C411.755 214.09 411.464 213.863 411.077 213.724C410.496 213.517 409.951 213.597 409.442 213.964C408.934 214.33 408.514 214.955 408.183 215.838C407.962 216.427 407.848 216.953 407.84 217.418C407.832 217.882 407.926 218.27 408.12 218.583C408.317 218.897 408.611 219.124 409.001 219.264Z" fill="white"/>
<path d="M383.86 193.937C383.563 193.831 383.336 193.672 383.178 193.461C383.021 193.249 382.936 192.992 382.923 192.692C382.911 192.391 382.975 192.054 383.114 191.684C383.252 191.315 383.426 191.02 383.634 190.799C383.844 190.576 384.079 190.434 384.34 190.371C384.602 190.307 384.881 190.328 385.175 190.433C385.47 190.538 385.695 190.698 385.852 190.911C386.011 191.124 386.096 191.381 386.108 191.683C386.122 191.983 386.06 192.318 385.921 192.687C385.782 193.058 385.608 193.354 385.399 193.577C385.191 193.798 384.957 193.941 384.696 194.004C384.436 194.065 384.157 194.043 383.86 193.937ZM383.998 193.571C384.292 193.676 384.566 193.638 384.819 193.456C385.072 193.275 385.281 192.962 385.448 192.518C385.559 192.222 385.616 191.958 385.619 191.723C385.623 191.489 385.576 191.293 385.478 191.134C385.38 190.976 385.235 190.862 385.04 190.793C384.748 190.689 384.475 190.729 384.219 190.913C383.964 191.097 383.753 191.41 383.587 191.853C383.476 192.148 383.419 192.412 383.415 192.645C383.411 192.878 383.458 193.073 383.555 193.23C383.654 193.387 383.802 193.501 383.998 193.571ZM386.048 194.666L388.987 192.294L388.997 192.267L386.915 191.523L387.052 191.157L389.639 192.081L389.494 192.468L386.561 194.849L386.048 194.666Z" fill="white"/>
<path d="M384.484 200.189L384.597 199.889L386.392 199.133C386.602 199.045 386.778 198.965 386.919 198.895C387.061 198.823 387.174 198.749 387.258 198.672C387.344 198.594 387.406 198.503 387.445 198.399C387.49 198.279 387.495 198.163 387.459 198.051C387.425 197.939 387.359 197.838 387.26 197.749C387.161 197.659 387.038 197.588 386.892 197.536C386.737 197.481 386.591 197.46 386.455 197.473C386.321 197.485 386.204 197.528 386.105 197.602C386.007 197.677 385.934 197.779 385.885 197.909L385.42 197.743C385.495 197.543 385.615 197.387 385.781 197.275C385.946 197.163 386.139 197.098 386.359 197.081C386.579 197.064 386.808 197.098 387.043 197.182C387.279 197.267 387.473 197.384 387.624 197.534C387.775 197.683 387.876 197.848 387.926 198.029C387.976 198.209 387.968 198.387 387.903 198.563C387.855 198.688 387.783 198.801 387.684 198.902C387.587 199.002 387.445 199.102 387.258 199.201C387.074 199.3 386.826 199.413 386.516 199.54L385.302 200.035L385.292 200.062L387.169 200.733L387.032 201.1L384.484 200.189ZM390.544 198.487L389.265 201.898L388.776 201.724L389.893 198.746L389.869 198.737L388.676 198.937L388.834 198.518L390.056 198.312L390.544 198.487Z" fill="white"/>
<path d="M245.302 121.653L241.288 132.403L239.747 131.85L243.252 122.465L243.177 122.438L239.422 123.066L239.915 121.743L243.762 121.1L245.302 121.653ZM244.945 133.716L245.298 132.772L250.947 130.395C251.609 130.117 252.163 129.867 252.607 129.645C253.053 129.42 253.407 129.187 253.672 128.944C253.941 128.7 254.138 128.413 254.26 128.084C254.402 127.706 254.416 127.34 254.304 126.987C254.196 126.634 253.986 126.317 253.674 126.034C253.361 125.751 252.976 125.527 252.516 125.362C252.027 125.187 251.569 125.12 251.141 125.16C250.718 125.199 250.35 125.335 250.038 125.568C249.729 125.802 249.499 126.124 249.346 126.534L247.88 126.008C248.115 125.378 248.494 124.886 249.015 124.534C249.536 124.181 250.143 123.978 250.834 123.925C251.53 123.873 252.248 123.98 252.989 124.246C253.734 124.514 254.345 124.884 254.821 125.357C255.297 125.829 255.615 126.35 255.773 126.919C255.932 127.488 255.908 128.049 255.701 128.601C255.554 128.997 255.324 129.353 255.013 129.67C254.708 129.985 254.262 130.299 253.676 130.612C253.095 130.924 252.316 131.279 251.341 131.679L247.519 133.236L247.488 133.32L253.4 135.443L252.969 136.597L244.945 133.716ZM259.777 139.208C258.957 138.914 258.271 138.533 257.718 138.064C257.169 137.597 256.785 137.085 256.567 136.526C256.353 135.965 256.335 135.397 256.513 134.822L258.078 135.384C257.981 135.742 258.01 136.092 258.165 136.433C258.32 136.771 258.574 137.08 258.924 137.36C259.275 137.641 259.694 137.869 260.183 138.045C260.729 138.241 261.244 138.334 261.726 138.325C262.209 138.316 262.624 138.211 262.971 138.01C263.318 137.809 263.562 137.52 263.703 137.142C263.851 136.746 263.865 136.357 263.746 135.972C263.628 135.585 263.377 135.225 262.994 134.893C262.611 134.561 262.096 134.279 261.45 134.047L260.432 133.681L260.863 132.526L261.882 132.892C262.387 133.073 262.858 133.156 263.297 133.138C263.739 133.123 264.12 133.013 264.44 132.811C264.764 132.61 264.997 132.32 265.138 131.942C265.274 131.578 265.297 131.227 265.207 130.889C265.117 130.552 264.926 130.245 264.635 129.97C264.347 129.696 263.97 129.475 263.502 129.307C263.063 129.149 262.624 129.069 262.183 129.066C261.749 129.06 261.362 129.142 261.022 129.309C260.684 129.474 260.437 129.73 260.283 130.08L258.793 129.545C259.028 128.99 259.413 128.569 259.948 128.281C260.484 127.989 261.101 127.834 261.799 127.814C262.5 127.796 263.217 127.919 263.95 128.182C264.737 128.464 265.361 128.841 265.824 129.313C266.288 129.781 266.589 130.288 266.728 130.834C266.867 131.38 266.841 131.907 266.652 132.414C266.426 133.02 266.045 133.468 265.509 133.76C264.977 134.053 264.359 134.167 263.656 134.101L263.624 134.185C264.386 134.585 264.905 135.099 265.183 135.726C265.462 136.35 265.474 137.004 265.219 137.686C265.001 138.27 264.616 138.728 264.066 139.058C263.521 139.386 262.875 139.567 262.13 139.601C261.385 139.635 260.6 139.504 259.777 139.208ZM267.194 139.205L267.594 138.134L275.974 132.666L276.893 132.996L276.274 134.655L275.653 134.432L269.321 138.564L269.29 138.648L276.817 141.35L276.385 142.505L267.194 139.205ZM272.358 143.559L273.302 141.029L273.489 140.53L276.372 132.809L277.837 133.335L273.823 144.085L272.358 143.559ZM286.728 148.885C285.999 148.624 285.388 148.266 284.896 147.811C284.404 147.356 284.062 146.852 283.869 146.299C283.676 145.746 283.666 145.19 283.836 144.633L285.327 145.168C285.203 145.675 285.314 146.171 285.658 146.656C286.009 147.139 286.509 147.497 287.159 147.73C287.681 147.918 288.183 147.981 288.666 147.92C289.153 147.861 289.579 147.693 289.946 147.415C290.318 147.136 290.589 146.767 290.76 146.309C290.935 145.84 290.969 145.378 290.862 144.923C290.761 144.466 290.539 144.055 290.196 143.69C289.853 143.324 289.412 143.043 288.871 142.845C288.483 142.701 288.064 142.609 287.615 142.566C287.167 142.521 286.781 142.531 286.456 142.597L285.07 141.932L287.816 136.918L294.423 139.29L293.992 140.445L288.676 138.536L287.045 141.546L287.12 141.573C287.446 141.492 287.827 141.464 288.264 141.49C288.7 141.515 289.132 141.605 289.558 141.758C290.336 142.037 290.971 142.444 291.462 142.977C291.958 143.509 292.279 144.108 292.425 144.775C292.574 145.444 292.519 146.127 292.259 146.823C292.003 147.509 291.592 148.056 291.026 148.464C290.466 148.87 289.811 149.115 289.061 149.199C288.313 149.28 287.535 149.175 286.728 148.885ZM297.616 152.795C297.097 152.6 296.606 152.329 296.145 151.981C295.683 151.633 295.309 151.19 295.02 150.654C294.734 150.115 294.582 149.471 294.565 148.723C294.55 147.971 294.728 147.099 295.099 146.105C295.455 145.153 295.875 144.348 296.361 143.689C296.848 143.026 297.386 142.515 297.976 142.155C298.567 141.792 299.195 141.581 299.86 141.522C300.529 141.465 301.222 141.565 301.938 141.822C302.651 142.078 303.239 142.426 303.704 142.866C304.174 143.305 304.505 143.801 304.697 144.354C304.89 144.908 304.934 145.481 304.83 146.075L303.314 145.53C303.354 144.997 303.23 144.498 302.944 144.034C302.657 143.57 302.178 143.217 301.507 142.977C300.522 142.623 299.61 142.706 298.773 143.227C297.939 143.749 297.276 144.664 296.783 145.971L296.882 146.007C297.225 145.793 297.595 145.638 297.993 145.542C298.395 145.445 298.813 145.408 299.245 145.433C299.677 145.457 300.111 145.547 300.546 145.703C301.274 145.965 301.883 146.358 302.373 146.883C302.864 147.404 303.191 148 303.354 148.67C303.518 149.336 303.471 150.016 303.212 150.708C302.964 151.373 302.561 151.919 302.002 152.346C301.445 152.769 300.787 153.028 300.028 153.125C299.274 153.22 298.47 153.109 297.616 152.795ZM298.047 151.64C298.569 151.827 299.078 151.885 299.574 151.813C300.075 151.743 300.514 151.565 300.893 151.281C301.275 150.997 301.552 150.628 301.722 150.173C301.888 149.729 301.921 149.282 301.82 148.834C301.726 148.383 301.514 147.976 301.185 147.611C300.86 147.249 300.437 146.974 299.916 146.787C299.522 146.645 299.131 146.58 298.742 146.591C298.354 146.599 297.989 146.67 297.648 146.806C297.31 146.942 297.014 147.132 296.759 147.374C296.506 147.612 296.319 147.892 296.199 148.214C296.04 148.641 296.009 149.082 296.106 149.538C296.208 149.995 296.423 150.412 296.752 150.788C297.086 151.166 297.517 151.45 298.047 151.64ZM304.758 155.192L313.998 147.724L314.03 147.64L307.472 145.285L307.903 144.13L316.051 147.056L315.596 148.273L306.373 155.772L304.758 155.192ZM318.114 160.155C317.262 159.849 316.556 159.45 315.997 158.96C315.444 158.468 315.069 157.93 314.873 157.348C314.679 156.762 314.692 156.18 314.913 155.6C315.079 155.144 315.341 154.762 315.7 154.454C316.061 154.143 316.475 153.925 316.945 153.8C317.42 153.673 317.902 153.657 318.392 153.754L318.415 153.691C317.856 153.339 317.48 152.877 317.285 152.303C317.092 151.726 317.105 151.153 317.322 150.584C317.521 150.036 317.867 149.607 318.359 149.295C318.851 148.984 319.433 148.808 320.106 148.767C320.782 148.729 321.493 148.843 322.238 149.111C322.975 149.375 323.587 149.736 324.074 150.192C324.561 150.649 324.89 151.152 325.06 151.701C325.235 152.252 325.222 152.801 325.022 153.349C324.805 153.918 324.431 154.361 323.899 154.678C323.373 154.993 322.787 155.11 322.141 155.029L322.118 155.092C322.551 155.327 322.903 155.642 323.174 156.036C323.445 156.428 323.619 156.857 323.693 157.324C323.769 157.788 323.724 158.248 323.558 158.704C323.337 159.284 322.957 159.735 322.419 160.057C321.886 160.378 321.246 160.551 320.499 160.577C319.758 160.6 318.963 160.46 318.114 160.155ZM318.546 159C319.121 159.207 319.647 159.306 320.124 159.299C320.601 159.292 321.007 159.185 321.342 158.98C321.677 158.775 321.918 158.481 322.066 158.097C322.214 157.69 322.223 157.286 322.095 156.887C321.967 156.488 321.725 156.124 321.37 155.793C321.018 155.465 320.573 155.204 320.035 155.011C319.493 154.816 318.975 154.731 318.482 154.757C317.993 154.783 317.568 154.909 317.208 155.132C316.851 155.358 316.599 155.674 316.452 156.081C316.304 156.465 316.288 156.84 316.405 157.207C316.525 157.576 316.767 157.915 317.131 158.224C317.494 158.533 317.966 158.792 318.546 159ZM320.451 153.898C320.906 154.061 321.339 154.129 321.748 154.102C322.162 154.076 322.521 153.961 322.827 153.757C323.134 153.553 323.358 153.267 323.501 152.897C323.632 152.532 323.649 152.179 323.551 151.838C323.454 151.494 323.257 151.185 322.96 150.912C322.665 150.635 322.283 150.412 321.815 150.244C321.339 150.073 320.895 149.999 320.482 150.022C320.071 150.041 319.718 150.152 319.421 150.355C319.126 150.555 318.913 150.837 318.781 151.203C318.638 151.572 318.615 151.931 318.71 152.279C318.81 152.628 319.009 152.944 319.307 153.225C319.606 153.507 319.987 153.731 320.451 153.898ZM337.908 154.737C338.429 154.928 338.919 155.199 339.379 155.551C339.84 155.903 340.214 156.347 340.502 156.883C340.791 157.415 340.944 158.055 340.961 158.803C340.977 159.552 340.801 160.419 340.433 161.406C340.076 162.361 339.652 163.171 339.159 163.836C338.672 164.498 338.133 165.011 337.542 165.374C336.955 165.739 336.327 165.95 335.658 166.007C334.993 166.066 334.302 165.967 333.586 165.71C332.874 165.454 332.283 165.107 331.812 164.668C331.348 164.228 331.017 163.73 330.821 163.175C330.629 162.618 330.59 162.039 330.702 161.436L332.218 161.98C332.17 162.523 332.289 163.028 332.574 163.495C332.865 163.961 333.346 164.314 334.017 164.555C334.998 164.907 335.908 164.823 336.745 164.302C337.587 163.783 338.255 162.862 338.749 161.539L338.65 161.504C338.308 161.714 337.938 161.869 337.539 161.968C337.141 162.067 336.726 162.105 336.293 162.08C335.861 162.056 335.425 161.965 334.986 161.808C334.258 161.546 333.646 161.154 333.151 160.631C332.662 160.106 332.335 159.51 332.17 158.844C332.011 158.176 332.061 157.495 332.32 156.802C332.566 156.144 332.964 155.605 333.516 155.184C334.073 154.761 334.729 154.5 335.484 154.402C336.243 154.306 337.051 154.417 337.908 154.737ZM337.477 155.892C336.955 155.704 336.444 155.646 335.944 155.716C335.449 155.785 335.01 155.96 334.627 156.244C334.25 156.525 333.978 156.889 333.81 157.337C333.643 157.785 333.607 158.235 333.701 158.685C333.802 159.134 334.014 159.54 334.339 159.902C334.669 160.263 335.095 160.537 335.616 160.724C336.01 160.865 336.4 160.932 336.788 160.925C337.177 160.914 337.541 160.84 337.878 160.703C338.221 160.564 338.519 160.375 338.773 160.137C339.027 159.895 339.214 159.615 339.333 159.296C339.49 158.877 339.517 158.44 339.414 157.986C339.315 157.534 339.099 157.119 338.766 156.741C338.437 156.365 338.007 156.082 337.477 155.892ZM344.797 169.735C343.861 169.399 343.145 168.898 342.647 168.231C342.151 167.561 341.882 166.752 341.842 165.805C341.802 164.854 342.001 163.794 342.437 162.625C342.871 161.464 343.415 160.534 344.07 159.837C344.73 159.137 345.471 158.688 346.291 158.491C347.117 158.291 347.993 158.358 348.921 158.691C349.848 159.024 350.559 159.527 351.054 160.201C351.555 160.873 351.825 161.684 351.864 162.635C351.909 163.584 351.714 164.639 351.281 165.801C350.844 166.97 350.298 167.904 349.642 168.605C348.987 169.303 348.249 169.75 347.429 169.948C346.61 170.142 345.733 170.071 344.797 169.735ZM345.228 168.58C346.155 168.913 347.017 168.794 347.813 168.223C348.608 167.651 349.267 166.665 349.79 165.266C350.138 164.335 350.316 163.5 350.324 162.761C350.336 162.023 350.187 161.404 349.877 160.903C349.57 160.404 349.11 160.045 348.497 159.825C347.578 159.495 346.717 159.62 345.913 160.201C345.111 160.778 344.449 161.764 343.928 163.161C343.58 164.091 343.401 164.924 343.389 165.658C343.378 166.392 343.527 167.007 343.835 167.503C344.147 168 344.611 168.359 345.228 168.58ZM360.119 162.878L356.105 173.629L354.565 173.076L358.069 163.69L357.995 163.663L354.239 164.291L354.733 162.968L358.579 162.325L360.119 162.878ZM363.856 176.579C362.921 176.243 362.204 175.741 361.706 175.074C361.21 174.404 360.942 173.595 360.901 172.648C360.861 171.697 361.06 170.638 361.496 169.469C361.93 168.307 362.475 167.377 363.129 166.68C363.79 165.98 364.53 165.532 365.35 165.334C366.176 165.135 367.053 165.201 367.98 165.534C368.907 165.867 369.619 166.371 370.114 167.045C370.614 167.716 370.884 168.528 370.923 169.478C370.968 170.427 370.774 171.482 370.34 172.644C369.903 173.813 369.357 174.748 368.701 175.449C368.046 176.146 367.309 176.594 366.488 176.791C365.669 176.985 364.792 176.915 363.856 176.579ZM364.287 175.424C365.215 175.757 366.076 175.637 366.872 175.066C367.668 174.494 368.327 173.509 368.849 172.109C369.197 171.178 369.375 170.343 369.383 169.604C369.396 168.866 369.247 168.247 368.936 167.747C368.629 167.248 368.169 166.888 367.557 166.668C366.638 166.338 365.776 166.463 364.973 167.044C364.17 167.621 363.508 168.608 362.987 170.004C362.639 170.935 362.46 171.767 362.449 172.501C362.438 173.236 362.586 173.85 362.894 174.346C363.206 174.843 363.671 175.202 364.287 175.424ZM230.722 146.214L231.122 145.143L239.502 139.675L240.421 140.005L239.802 141.663L239.181 141.441L232.849 145.572L232.817 145.656L240.344 148.359L239.913 149.514L230.722 146.214ZM235.885 150.568L236.83 148.038L237.016 147.539L239.9 139.817L241.365 140.344L237.351 151.094L235.885 150.568ZM245.337 154.128C244.608 153.866 243.998 153.508 243.505 153.054C243.013 152.599 242.671 152.095 242.478 151.542C242.286 150.989 242.275 150.433 242.446 149.875L243.936 150.41C243.812 150.918 243.923 151.414 244.268 151.899C244.618 152.382 245.118 152.74 245.768 152.973C246.29 153.16 246.792 153.224 247.275 153.163C247.762 153.104 248.189 152.935 248.555 152.658C248.927 152.379 249.198 152.01 249.37 151.552C249.545 151.083 249.579 150.621 249.472 150.166C249.37 149.709 249.148 149.297 248.805 148.932C248.463 148.567 248.021 148.286 247.48 148.087C247.092 147.944 246.673 147.851 246.224 147.809C245.777 147.763 245.39 147.774 245.065 147.839L243.679 147.175L246.425 142.16L253.033 144.533L252.601 145.688L247.285 143.779L245.655 146.789L245.729 146.816C246.055 146.734 246.436 146.707 246.873 146.732C247.309 146.758 247.741 146.848 248.167 147.001C248.946 147.28 249.58 147.687 250.071 148.22C250.568 148.752 250.889 149.351 251.034 150.018C251.183 150.687 251.128 151.37 250.868 152.066C250.612 152.752 250.201 153.299 249.635 153.707C249.075 154.113 248.42 154.358 247.671 154.442C246.922 154.523 246.144 154.418 245.337 154.128ZM256.225 158.037C255.706 157.843 255.216 157.572 254.754 157.224C254.293 156.875 253.918 156.433 253.63 155.897C253.343 155.358 253.191 154.714 253.175 153.966C253.159 153.214 253.337 152.341 253.708 151.348C254.064 150.396 254.484 149.59 254.97 148.931C255.457 148.269 255.995 147.758 256.585 147.398C257.176 147.035 257.804 146.824 258.469 146.765C259.139 146.707 259.831 146.807 260.548 147.065C261.26 147.32 261.848 147.668 262.313 148.109C262.783 148.548 263.114 149.044 263.307 149.597C263.499 150.15 263.543 150.724 263.439 151.317L261.924 150.773C261.963 150.24 261.84 149.741 261.553 149.277C261.266 148.813 260.787 148.46 260.116 148.219C259.131 147.866 258.22 147.949 257.382 148.47C256.548 148.992 255.885 149.907 255.392 151.214L255.492 151.25C255.835 151.036 256.205 150.881 256.602 150.785C257.004 150.688 257.422 150.651 257.854 150.675C258.287 150.7 258.72 150.79 259.155 150.946C259.883 151.207 260.493 151.601 260.982 152.126C261.473 152.647 261.8 153.243 261.963 153.913C262.127 154.579 262.08 155.258 261.821 155.951C261.573 156.616 261.17 157.162 260.611 157.588C260.054 158.011 259.396 158.271 258.637 158.368C257.884 158.462 257.079 158.352 256.225 158.037ZM256.656 156.883C257.178 157.07 257.687 157.128 258.183 157.056C258.684 156.986 259.123 156.808 259.502 156.523C259.885 156.24 260.161 155.871 260.331 155.416C260.497 154.972 260.53 154.525 260.43 154.076C260.335 153.626 260.123 153.218 259.794 152.854C259.47 152.492 259.047 152.217 258.525 152.029C258.132 151.888 257.74 151.823 257.351 151.834C256.963 151.842 256.599 151.913 256.257 152.048C255.919 152.185 255.623 152.374 255.369 152.616C255.115 152.855 254.929 153.135 254.808 153.457C254.649 153.884 254.618 154.325 254.715 154.781C254.817 155.238 255.032 155.655 255.362 156.031C255.695 156.408 256.126 156.692 256.656 156.883ZM263.367 160.435L272.608 152.966L272.639 152.882L266.081 150.528L266.512 149.373L274.66 152.298L274.205 153.516L264.982 161.015L263.367 160.435Z" fill="white"/>
<path d="M272.703 189.187L275.244 182.389L280.068 184.119L279.795 184.849L275.945 183.468L275.087 185.765L278.575 187.016L278.302 187.746L274.814 186.495L273.677 189.536L272.703 189.187ZM279.069 191.47L280.976 186.371L281.903 186.704L279.996 191.802L279.069 191.47ZM281.765 185.691C281.584 185.626 281.448 185.518 281.355 185.367C281.266 185.217 281.249 185.069 281.303 184.923C281.358 184.777 281.469 184.675 281.636 184.617C281.806 184.56 281.981 184.564 282.162 184.628C282.342 184.693 282.478 184.801 282.567 184.951C282.659 185.102 282.678 185.25 282.623 185.396C282.569 185.542 282.456 185.644 282.286 185.701C282.119 185.759 281.945 185.755 281.765 185.691ZM283.768 189.677L282.621 192.744L281.694 192.411L283.601 187.313L284.496 187.634L284.198 188.431L284.277 188.459C284.515 188.251 284.808 188.12 285.155 188.066C285.502 188.01 285.904 188.063 286.359 188.227C286.768 188.373 287.099 188.572 287.352 188.824C287.607 189.073 287.766 189.371 287.829 189.718C287.893 190.062 287.845 190.451 287.682 190.885L286.471 194.124L285.544 193.792L286.735 190.605C286.885 190.205 286.879 189.849 286.716 189.537C286.554 189.223 286.259 188.989 285.829 188.835C285.533 188.729 285.249 188.688 284.975 188.713C284.704 188.739 284.463 188.832 284.251 188.992C284.04 189.152 283.879 189.38 283.768 189.677ZM289.896 195.488C289.514 195.351 289.19 195.166 288.923 194.932C288.658 194.697 288.477 194.43 288.381 194.132C288.285 193.831 288.299 193.515 288.423 193.183C288.533 192.891 288.689 192.679 288.893 192.546C289.098 192.411 289.334 192.333 289.601 192.31C289.867 192.288 290.148 192.301 290.442 192.348C290.739 192.395 291.034 192.453 291.326 192.522C291.707 192.614 292.016 192.691 292.251 192.753C292.49 192.813 292.671 192.837 292.795 192.823C292.921 192.811 293.008 192.742 293.055 192.616L293.065 192.589C293.187 192.261 293.176 191.969 293.032 191.711C292.89 191.455 292.606 191.25 292.179 191.097C291.737 190.938 291.359 190.896 291.047 190.969C290.734 191.043 290.492 191.154 290.32 191.304L289.539 190.722C289.812 190.469 290.112 190.303 290.439 190.224C290.768 190.144 291.102 190.126 291.439 190.169C291.78 190.211 292.102 190.286 292.406 190.395C292.6 190.465 292.815 190.564 293.052 190.694C293.291 190.823 293.507 190.99 293.698 191.194C293.892 191.399 294.022 191.65 294.089 191.947C294.156 192.245 294.114 192.596 293.962 193.001L292.706 196.36L291.779 196.028L292.037 195.337L291.99 195.321C291.886 195.409 291.737 195.489 291.543 195.563C291.349 195.637 291.114 195.674 290.837 195.675C290.561 195.676 290.247 195.614 289.896 195.488ZM290.301 194.835C290.667 194.967 290.999 195.017 291.296 194.985C291.595 194.954 291.845 194.866 292.046 194.719C292.249 194.574 292.39 194.395 292.469 194.182L292.737 193.465C292.683 193.491 292.583 193.497 292.437 193.482C292.295 193.466 292.132 193.439 291.95 193.401C291.772 193.363 291.598 193.323 291.429 193.282C291.264 193.24 291.129 193.207 291.025 193.183C290.774 193.123 290.533 193.085 290.301 193.07C290.073 193.053 289.873 193.08 289.7 193.152C289.532 193.222 289.41 193.356 289.336 193.555C289.234 193.828 289.276 194.076 289.462 194.301C289.652 194.525 289.931 194.703 290.301 194.835ZM296.472 194.232L295.325 197.3L294.398 196.967L296.305 191.869L297.2 192.19L296.902 192.986L296.981 193.015C297.219 192.806 297.512 192.675 297.858 192.622C298.206 192.566 298.608 192.619 299.063 192.783C299.472 192.929 299.803 193.128 300.056 193.38C300.311 193.629 300.47 193.927 300.533 194.273C300.597 194.618 300.549 195.007 300.386 195.44L299.175 198.68L298.248 198.348L299.439 195.161C299.589 194.761 299.583 194.404 299.42 194.093C299.258 193.779 298.963 193.545 298.533 193.391C298.237 193.284 297.953 193.244 297.679 193.269C297.408 193.294 297.167 193.387 296.955 193.548C296.744 193.708 296.583 193.936 296.472 194.232ZM303.281 200.273C302.715 200.07 302.27 199.783 301.946 199.41C301.622 199.038 301.424 198.614 301.352 198.139C301.28 197.664 301.339 197.172 301.53 196.664C301.723 196.146 302.007 195.729 302.38 195.414C302.757 195.097 303.19 194.9 303.679 194.822C304.172 194.743 304.691 194.801 305.236 194.996C305.66 195.148 306.017 195.352 306.308 195.607C306.599 195.862 306.809 196.147 306.937 196.464C307.065 196.781 307.095 197.109 307.028 197.446L306.101 197.113C306.117 196.856 306.037 196.594 305.861 196.327C305.688 196.059 305.397 195.852 304.988 195.705C304.627 195.576 304.28 195.542 303.948 195.604C303.62 195.664 303.326 195.811 303.066 196.044C302.81 196.276 302.61 196.584 302.467 196.969C302.319 197.363 302.264 197.733 302.302 198.077C302.342 198.423 302.467 198.725 302.676 198.983C302.888 199.242 303.177 199.438 303.544 199.569C303.785 199.656 304.017 199.699 304.24 199.698C304.462 199.698 304.667 199.656 304.853 199.572C305.038 199.488 305.195 199.363 305.322 199.198L306.249 199.531C306.084 199.813 305.853 200.037 305.556 200.204C305.262 200.37 304.92 200.463 304.529 200.484C304.142 200.503 303.726 200.433 303.281 200.273ZM309.538 202.517C308.957 202.309 308.496 202.02 308.156 201.652C307.818 201.283 307.609 200.862 307.528 200.388C307.45 199.913 307.508 199.415 307.704 198.893C307.899 198.37 308.184 197.951 308.558 197.633C308.935 197.314 309.369 197.116 309.858 197.038C310.351 196.959 310.87 197.017 311.415 197.212C311.729 197.325 312.023 197.48 312.296 197.679C312.57 197.877 312.795 198.121 312.972 198.41C313.149 198.697 313.252 199.03 313.28 199.409C313.307 199.788 313.232 200.215 313.054 200.691L312.93 201.023L308.279 199.355L308.532 198.678L312.241 200.008C312.348 199.72 312.376 199.439 312.324 199.164C312.275 198.891 312.151 198.644 311.951 198.424C311.753 198.206 311.487 198.036 311.152 197.916C310.782 197.783 310.434 197.746 310.106 197.804C309.782 197.861 309.502 197.987 309.266 198.181C309.03 198.375 308.86 198.612 308.755 198.893L308.586 199.345C308.442 199.73 308.399 200.084 308.456 200.408C308.516 200.731 308.662 201.013 308.892 201.254C309.124 201.493 309.427 201.679 309.801 201.813C310.045 201.901 310.276 201.951 310.494 201.964C310.715 201.975 310.92 201.948 311.108 201.883C311.296 201.815 311.463 201.707 311.608 201.558L312.424 202.091C312.234 202.314 311.991 202.483 311.696 202.598C311.401 202.711 311.07 202.763 310.702 202.754C310.335 202.742 309.947 202.664 309.538 202.517ZM270.429 193.933L270.702 193.203L276.736 195.366L276.463 196.097L273.933 195.189L271.665 201.257L270.69 200.908L272.959 194.84L270.429 193.933ZM274.946 202.434L276.852 197.335L277.748 197.657L277.46 198.427L277.523 198.449C277.727 198.236 278.002 198.103 278.349 198.049C278.696 197.995 279.05 198.033 279.412 198.163C279.48 198.187 279.564 198.219 279.666 198.258C279.767 198.297 279.843 198.328 279.894 198.351L279.596 199.148C279.567 199.13 279.499 199.094 279.391 199.04C279.287 198.985 279.173 198.936 279.05 198.892C278.757 198.786 278.475 198.744 278.206 198.766C277.94 198.786 277.706 198.863 277.505 198.996C277.307 199.129 277.165 199.31 277.079 199.54L275.873 202.766L274.946 202.434ZM280.792 204.666C280.41 204.529 280.086 204.344 279.82 204.11C279.554 203.875 279.374 203.608 279.277 203.31C279.181 203.009 279.196 202.693 279.32 202.361C279.429 202.069 279.586 201.857 279.79 201.724C279.995 201.589 280.23 201.511 280.497 201.488C280.764 201.466 281.044 201.479 281.338 201.527C281.636 201.573 281.93 201.631 282.222 201.701C282.604 201.792 282.912 201.869 283.147 201.931C283.386 201.991 283.567 202.015 283.691 202.001C283.817 201.989 283.904 201.92 283.951 201.794L283.961 201.767C284.084 201.44 284.073 201.147 283.929 200.89C283.787 200.633 283.503 200.428 283.076 200.275C282.633 200.116 282.256 200.074 281.943 200.147C281.63 200.221 281.388 200.332 281.216 200.482L280.436 199.901C280.709 199.647 281.008 199.481 281.335 199.402C281.665 199.322 281.998 199.304 282.336 199.347C282.676 199.389 282.999 199.464 283.302 199.573C283.496 199.643 283.711 199.743 283.948 199.873C284.188 200.001 284.403 200.168 284.594 200.372C284.788 200.577 284.918 200.828 284.985 201.125C285.052 201.423 285.01 201.774 284.859 202.179L283.603 205.538L282.676 205.206L282.934 204.516L282.887 204.499C282.782 204.587 282.633 204.668 282.44 204.741C282.246 204.815 282.01 204.852 281.734 204.853C281.457 204.854 281.143 204.792 280.792 204.666ZM281.197 204.013C281.564 204.145 281.895 204.195 282.192 204.163C282.492 204.132 282.742 204.044 282.942 203.897C283.145 203.752 283.286 203.573 283.366 203.36L283.634 202.643C283.579 202.669 283.479 202.675 283.333 202.66C283.191 202.644 283.029 202.617 282.847 202.58C282.668 202.541 282.494 202.501 282.325 202.46C282.16 202.419 282.025 202.385 281.922 202.361C281.671 202.301 281.429 202.263 281.198 202.248C280.969 202.231 280.769 202.259 280.597 202.33C280.428 202.4 280.306 202.534 280.232 202.734C280.13 203.006 280.172 203.254 280.359 203.479C280.548 203.703 280.828 203.881 281.197 204.013ZM287.706 207.131C287.141 206.928 286.696 206.64 286.372 206.268C286.047 205.896 285.849 205.472 285.777 204.997C285.706 204.522 285.765 204.03 285.955 203.521C286.149 203.003 286.432 202.587 286.805 202.271C287.182 201.955 287.615 201.757 288.105 201.68C288.598 201.6 289.117 201.658 289.661 201.854C290.086 202.006 290.443 202.209 290.734 202.464C291.025 202.719 291.234 203.005 291.362 203.322C291.49 203.639 291.521 203.966 291.454 204.304L290.527 203.971C290.543 203.713 290.463 203.451 290.286 203.185C290.113 202.917 289.822 202.71 289.414 202.563C289.052 202.433 288.706 202.399 288.374 202.461C288.045 202.522 287.751 202.668 287.492 202.902C287.236 203.133 287.036 203.442 286.892 203.827C286.745 204.221 286.69 204.59 286.727 204.935C286.767 205.281 286.892 205.583 287.101 205.841C287.313 206.1 287.603 206.295 287.969 206.427C288.21 206.513 288.442 206.556 288.665 206.556C288.888 206.555 289.092 206.513 289.278 206.429C289.464 206.345 289.62 206.221 289.748 206.056L290.675 206.388C290.51 206.67 290.279 206.895 289.982 207.062C289.688 207.228 289.346 207.321 288.955 207.341C288.568 207.36 288.151 207.29 287.706 207.131ZM293.033 206.812L293.38 205.837L293.568 205.905L297.057 204.581L298.204 204.993L294.493 206.387L294.414 206.359L293.033 206.812ZM291.474 208.361L294.015 201.563L294.943 201.896L292.401 208.694L291.474 208.361ZM295.308 209.736L293.894 206.368L294.758 206.06L296.486 210.159L295.308 209.736ZM299.733 211.443C299.151 211.235 298.69 210.947 298.35 210.579C298.013 210.209 297.803 209.788 297.722 209.314C297.644 208.84 297.703 208.341 297.898 207.819C298.093 207.297 298.378 206.877 298.752 206.559C299.13 206.241 299.563 206.042 300.053 205.964C300.545 205.885 301.064 205.943 301.609 206.138C301.923 206.251 302.217 206.407 302.49 206.605C302.764 206.803 302.989 207.047 303.166 207.337C303.344 207.624 303.446 207.957 303.474 208.336C303.502 208.714 303.426 209.142 303.249 209.617L303.124 209.949L298.473 208.281L298.727 207.604L302.435 208.934C302.542 208.646 302.57 208.365 302.519 208.091C302.469 207.817 302.345 207.57 302.145 207.351C301.947 207.132 301.681 206.962 301.346 206.842C300.977 206.71 300.628 206.673 300.301 206.731C299.976 206.788 299.696 206.913 299.46 207.107C299.225 207.301 299.054 207.539 298.949 207.82L298.78 208.271C298.636 208.656 298.593 209.011 298.65 209.335C298.71 209.658 298.856 209.939 299.087 210.18C299.318 210.419 299.621 210.605 299.996 210.74C300.239 210.827 300.47 210.877 300.688 210.89C300.909 210.902 301.114 210.875 301.302 210.809C301.49 210.741 301.657 210.633 301.802 210.484L302.618 211.018C302.428 211.241 302.185 211.409 301.89 211.524C301.595 211.637 301.264 211.689 300.896 211.68C300.529 211.669 300.141 211.59 299.733 211.443ZM303.681 212.739L305.587 207.64L306.483 207.961L306.195 208.732L306.258 208.754C306.462 208.541 306.738 208.408 307.084 208.354C307.431 208.3 307.785 208.338 308.147 208.468C308.215 208.492 308.299 208.524 308.401 208.563C308.502 208.602 308.578 208.633 308.629 208.656L308.331 209.452C308.302 209.435 308.234 209.399 308.126 209.345C308.022 209.29 307.908 209.241 307.785 209.196C307.492 209.091 307.211 209.049 306.941 209.071C306.675 209.091 306.442 209.168 306.24 209.301C306.042 209.434 305.9 209.615 305.814 209.845L304.608 213.071L303.681 212.739Z" fill="white"/>
<path fill-rule="evenodd" clip-rule="evenodd" d="M338.63 103.276L345.616 105.627C348.583 106.622 351.044 109.617 351.123 112.317L351.214 115.428L343.248 112.75C340.219 111.728 337.688 108.659 337.607 105.899C337.574 104.778 337.955 103.879 338.623 103.276L338.63 103.276ZM344.011 122.097L351.483 124.608L351.24 116.313L343.768 113.801L344.011 122.097ZM336.641 105.571C336.609 104.478 336.913 103.565 337.459 102.882L327.391 99.4953C327.988 100.566 328.353 101.699 328.385 102.793C328.475 105.891 325.909 107.547 322.576 106.654L322.82 114.99C326.167 116.342 328.882 119.775 328.973 122.873C329.014 124.283 328.504 125.392 327.628 126.104L338.791 129.858C337.856 128.538 337.27 127.062 337.229 125.651C337.138 122.553 339.704 120.897 343.038 121.79L342.794 113.454C339.446 112.102 336.731 108.669 336.641 105.571ZM343.55 122.82C340.522 121.799 338.122 123.218 338.203 125.979C338.246 127.457 338.993 129.02 340.146 130.312L346.408 132.416C349.375 133.411 351.708 132.032 351.629 129.333L351.517 125.499L343.55 122.82ZM322.063 105.623C325.092 106.639 327.492 105.226 327.411 102.465C327.378 101.345 326.936 100.165 326.22 99.1012L319.234 96.7501C316.267 95.7549 313.934 97.1336 314.013 99.8334L314.104 102.945L322.071 105.623L322.063 105.623ZM327.999 122.545C327.918 119.785 325.387 116.716 322.358 115.694L314.392 113.015L314.504 116.849C314.583 119.549 317.051 122.544 320.011 123.539L326.274 125.643C327.366 125.106 328.042 124.017 327.999 122.539L327.999 122.545ZM321.602 106.347L314.13 103.836L314.373 112.131L321.845 114.643L321.602 106.347Z" fill="white"/>
<path d="M371.365 137.894C371.239 137.853 371.111 137.777 370.999 137.666C370.726 137.395 370.662 137.032 370.853 136.849C372.817 135.033 373.814 132.426 373.734 129.317C373.653 126.208 372.503 122.896 370.41 119.731C370.206 119.417 370.252 119.089 370.516 119.003C370.78 118.91 371.16 119.09 371.372 119.403C373.628 122.812 374.863 126.381 374.949 129.728C375.036 133.075 373.966 135.878 371.849 137.835C371.734 137.94 371.554 137.956 371.365 137.894Z" fill="white"/>
<path d="M368.165 134.999C368.031 134.951 367.896 134.869 367.783 134.751C367.518 134.473 367.47 134.111 367.668 133.942C369.328 132.592 370.202 130.493 370.137 128.031C370.073 125.569 369.072 122.847 367.312 120.361C367.093 120.055 367.123 119.72 367.386 119.614C367.641 119.507 368.02 119.672 368.239 119.978C370.177 122.714 371.279 125.721 371.351 128.435C371.422 131.148 370.46 133.464 368.632 134.948C368.517 135.039 368.346 135.054 368.165 134.992L368.165 134.999Z" fill="white"/>
<path d="M364.934 132.066C364.785 132.018 364.634 131.915 364.514 131.777C364.265 131.486 364.248 131.138 364.477 130.991C365.862 130.114 366.599 128.607 366.549 126.736C366.499 124.866 365.624 122.722 364.08 120.86C363.838 120.569 363.829 120.221 364.059 120.081C364.289 119.947 364.673 120.077 364.915 120.368C366.684 122.521 367.69 124.922 367.75 127.14C367.81 129.358 366.96 131.032 365.369 132.043C365.254 132.113 365.099 132.121 364.934 132.066Z" fill="white"/>
<path d="M361.54 129.012C361.344 128.943 361.147 128.792 361.025 128.592C360.839 128.275 360.908 127.97 361.184 127.9C362.32 127.611 362.974 126.695 362.94 125.45C362.905 124.206 362.186 122.833 361.012 121.767C360.727 121.512 360.64 121.146 360.812 120.951C360.984 120.757 361.357 120.804 361.642 121.065C363.165 122.448 364.104 124.234 364.149 125.852C364.194 127.471 363.338 128.657 361.865 129.038C361.765 129.066 361.657 129.053 361.547 129.019L361.54 129.012Z" fill="white"/>
<g opacity="0.75">
<path d="M198.888 23.2907C200.038 23.2865 201.284 23.4905 202.596 23.9298L459.779 110.339C465.66 112.316 470.56 118.26 470.716 123.615L474.759 262.151C474.88 266.316 472.1 268.897 468.096 268.911C466.946 268.915 465.7 268.711 464.388 268.272L207.197 181.863C201.316 179.886 196.417 173.942 196.26 168.587L192.218 30.0506C192.096 25.886 194.876 23.3054 198.881 23.2907M198.861 22.6179C194.308 22.6346 191.337 25.6263 191.467 30.0533L195.509 168.589C195.673 174.194 200.799 180.426 206.945 182.489L464.128 268.899C465.494 269.358 466.831 269.589 468.108 269.584C472.661 269.567 475.632 266.582 475.502 262.149L471.46 123.613C471.296 118.008 466.163 111.776 460.024 109.713L202.841 23.3031C201.475 22.8438 200.138 22.6132 198.869 22.6179L198.861 22.6179Z" fill="url(#paint1_linear_1_236)"/>
</g>
<g opacity="0.75">
<path d="M198.888 23.2907C200.038 23.2865 201.284 23.4905 202.596 23.9298L459.779 110.339C465.66 112.316 470.56 118.26 470.716 123.615L474.759 262.151C474.88 266.316 472.1 268.897 468.096 268.911C466.946 268.915 465.7 268.711 464.388 268.272L207.197 181.863C201.316 179.886 196.417 173.942 196.26 168.587L192.218 30.0506C192.096 25.886 194.876 23.3054 198.881 23.2907M198.861 22.6179C194.308 22.6346 191.337 25.6263 191.467 30.0533L195.509 168.589C195.673 174.194 200.799 180.426 206.945 182.489L464.128 268.899C465.494 269.358 466.831 269.589 468.108 269.584C472.661 269.567 475.632 266.582 475.502 262.149L471.46 123.613C471.296 118.008 466.163 111.776 460.024 109.713L202.841 23.3031C201.475 22.8438 200.138 22.6132 198.869 22.6179L198.861 22.6179Z" fill="url(#paint2_linear_1_236)"/>
</g>
</g>
<g filter="url(#filter1_d_1_236)">
<path opacity="0.18" fill-rule="evenodd" clip-rule="evenodd" d="M416.131 292.241C416.287 297.6 411.651 300.345 405.773 298.368L148.874 211.997C142.996 210.02 138.107 204.079 137.951 198.714L133.92 60.0872C133.765 54.7283 138.401 51.9836 144.279 53.9608L401.17 140.332C407.048 142.309 411.937 148.256 412.093 153.615L416.124 292.241L416.131 292.241Z" fill="white"/>
<path fill-rule="evenodd" clip-rule="evenodd" d="M416.131 292.241C416.287 297.6 411.651 300.345 405.773 298.368L148.874 211.997C142.996 210.02 138.107 204.079 137.951 198.714L133.92 60.0872C133.765 54.7283 138.401 51.9836 144.279 53.9608L401.17 140.332C407.048 142.309 411.937 148.256 412.093 153.615L416.124 292.241L416.131 292.241Z" fill="url(#paint3_linear_1_236)"/>
<path d="M169.805 164.385L167.942 169.347L167.232 169.093L168.858 164.761L168.824 164.749L167.089 165.042L167.318 164.431L169.095 164.131L169.805 164.385ZM169.63 169.95L169.794 169.514L172.404 168.412C172.71 168.284 172.966 168.168 173.171 168.065C173.377 167.961 173.541 167.853 173.663 167.741C173.788 167.628 173.879 167.496 173.936 167.344C174.002 167.169 174.009 167.001 173.957 166.838C173.908 166.675 173.811 166.529 173.667 166.399C173.523 166.269 173.345 166.166 173.133 166.09C172.908 166.009 172.696 165.979 172.498 165.998C172.303 166.016 172.133 166.079 171.988 166.187C171.846 166.295 171.739 166.444 171.668 166.633L170.992 166.392C171.101 166.101 171.276 165.874 171.517 165.711C171.758 165.548 172.038 165.454 172.358 165.428C172.679 165.404 173.01 165.453 173.352 165.575C173.696 165.698 173.978 165.868 174.197 166.085C174.417 166.303 174.563 166.543 174.636 166.805C174.708 167.067 174.697 167.326 174.601 167.581C174.532 167.764 174.426 167.928 174.282 168.075C174.141 168.22 173.935 168.365 173.664 168.51C173.395 168.655 173.035 168.819 172.585 169.004L170.819 169.726L170.804 169.765L173.532 170.739L173.332 171.272L169.63 169.95ZM176.473 172.47C176.095 172.335 175.778 172.16 175.523 171.944C175.27 171.729 175.094 171.493 174.993 171.235C174.895 170.977 174.888 170.715 174.97 170.45L175.692 170.707C175.647 170.873 175.66 171.034 175.731 171.191C175.803 171.347 175.92 171.489 176.081 171.618C176.243 171.748 176.436 171.852 176.662 171.933C176.914 172.023 177.151 172.066 177.374 172.061C177.597 172.056 177.789 172.007 177.949 171.914C178.11 171.821 178.223 171.688 178.288 171.513C178.357 171.331 178.363 171.151 178.309 170.974C178.254 170.795 178.139 170.629 177.962 170.477C177.786 170.324 177.549 170.194 177.251 170.088L176.781 169.92L176.981 169.387L177.451 169.555C177.684 169.638 177.901 169.675 178.104 169.667C178.308 169.66 178.484 169.609 178.632 169.515C178.782 169.422 178.89 169.288 178.955 169.114C179.018 168.946 179.029 168.784 178.988 168.628C178.947 168.472 178.859 168.331 178.725 168.204C178.592 168.078 178.418 167.977 178.202 167.9C178 167.827 177.797 167.791 177.593 167.79C177.393 167.788 177.214 167.825 177.057 167.903C176.901 167.979 176.787 168.098 176.715 168.259L176.028 168.014C176.137 167.758 176.315 167.563 176.562 167.43C176.81 167.295 177.095 167.222 177.417 167.213C177.741 167.204 178.072 167.26 178.41 167.381C178.773 167.51 179.061 167.683 179.274 167.901C179.488 168.116 179.626 168.35 179.69 168.601C179.754 168.853 179.742 169.096 179.654 169.33C179.549 169.61 179.372 169.817 179.125 169.952C178.879 170.088 178.593 170.141 178.269 170.111L178.254 170.149C178.605 170.333 178.845 170.57 178.972 170.859C179.101 171.147 179.106 171.448 178.987 171.763C178.886 172.033 178.708 172.244 178.454 172.397C178.202 172.549 177.904 172.633 177.559 172.649C177.215 172.665 176.853 172.606 176.473 172.47ZM179.898 172.462L180.084 171.968L183.958 169.438L184.382 169.59L184.095 170.355L183.808 170.253L180.881 172.164L180.866 172.203L184.339 173.443L184.139 173.976L179.898 172.462ZM182.278 174.466L182.717 173.298L182.803 173.068L184.141 169.504L184.818 169.745L182.955 174.707L182.278 174.466Z" fill="white"/>
<path d="M343.053 227.109C343.382 227.229 343.691 227.4 343.982 227.622C344.273 227.844 344.509 228.125 344.691 228.463C344.874 228.8 344.97 229.205 344.98 229.678C344.989 230.151 344.877 230.699 344.643 231.324C344.417 231.928 344.147 232.441 343.835 232.861C343.527 233.281 343.185 233.606 342.811 233.836C342.44 234.067 342.042 234.201 341.619 234.238C341.198 234.276 340.761 234.214 340.308 234.052C339.858 233.891 339.484 233.672 339.187 233.395C338.894 233.117 338.685 232.802 338.561 232.452C338.441 232.1 338.416 231.733 338.488 231.352L339.446 231.695C339.415 232.038 339.49 232.357 339.67 232.653C339.854 232.947 340.158 233.17 340.582 233.321C341.202 233.543 341.778 233.489 342.308 233.159C342.841 232.83 343.264 232.247 343.578 231.41L343.515 231.387C343.299 231.521 343.065 231.619 342.812 231.682C342.56 231.745 342.298 231.769 342.024 231.754C341.751 231.739 341.475 231.682 341.198 231.583C340.737 231.418 340.35 231.171 340.038 230.841C339.729 230.509 339.522 230.133 339.419 229.712C339.319 229.289 339.351 228.859 339.516 228.42C339.672 228.004 339.924 227.663 340.274 227.396C340.626 227.128 341.042 226.962 341.519 226.9C342 226.838 342.511 226.908 343.053 227.109ZM342.779 227.84C342.449 227.722 342.126 227.685 341.809 227.73C341.496 227.774 341.218 227.885 340.976 228.065C340.737 228.243 340.564 228.474 340.458 228.757C340.352 229.041 340.328 229.325 340.388 229.61C340.451 229.893 340.585 230.15 340.79 230.379C340.998 230.606 341.267 230.779 341.597 230.897C341.846 230.986 342.093 231.028 342.338 231.023C342.584 231.016 342.814 230.968 343.028 230.882C343.245 230.794 343.434 230.674 343.594 230.523C343.756 230.37 343.874 230.192 343.949 229.991C344.049 229.725 344.067 229.449 344.002 229.162C343.94 228.876 343.804 228.614 343.593 228.376C343.385 228.138 343.114 227.96 342.779 227.84ZM349.952 229.576C350.281 229.697 350.591 229.868 350.882 230.09C351.173 230.312 351.409 230.592 351.591 230.931C351.773 231.267 351.87 231.672 351.879 232.145C351.889 232.618 351.777 233.167 351.543 233.791C351.316 234.396 351.047 234.908 350.735 235.329C350.426 235.748 350.085 236.073 349.711 236.303C349.339 236.535 348.942 236.669 348.518 236.706C348.097 236.743 347.66 236.681 347.208 236.519C346.757 236.358 346.384 236.139 346.087 235.862C345.793 235.584 345.585 235.27 345.461 234.919C345.34 234.567 345.316 234.201 345.388 233.82L346.346 234.162C346.315 234.505 346.39 234.825 346.57 235.12C346.754 235.414 347.057 235.637 347.481 235.789C348.102 236.011 348.677 235.956 349.208 235.626C349.741 235.297 350.164 234.714 350.478 233.877L350.415 233.855C350.199 233.988 349.964 234.087 349.712 234.15C349.46 234.213 349.197 234.237 348.924 234.222C348.65 234.207 348.375 234.15 348.097 234.05C347.637 233.886 347.25 233.638 346.937 233.308C346.628 232.976 346.422 232.6 346.319 232.179C346.219 231.757 346.251 231.326 346.415 230.888C346.571 230.471 346.824 230.13 347.173 229.863C347.526 229.595 347.941 229.43 348.419 229.367C348.899 229.305 349.41 229.375 349.952 229.576ZM349.678 230.307C349.349 230.189 349.025 230.153 348.709 230.198C348.395 230.241 348.118 230.353 347.875 230.532C347.636 230.711 347.464 230.941 347.358 231.225C347.251 231.508 347.228 231.792 347.287 232.077C347.35 232.361 347.484 232.617 347.689 232.846C347.898 233.074 348.167 233.247 348.497 233.365C348.745 233.454 348.993 233.496 349.238 233.49C349.484 233.483 349.714 233.436 349.928 233.349C350.145 233.261 350.333 233.141 350.494 232.99C350.655 232.837 350.774 232.66 350.849 232.458C350.949 232.193 350.966 231.916 350.901 231.63C350.839 231.344 350.703 231.082 350.493 230.843C350.285 230.606 350.013 230.427 349.678 230.307ZM357.235 231.925L351.591 239.142L350.743 238.838L356.387 231.622L357.235 231.925ZM355.649 239.433L355.873 238.835L359.448 237.326C359.868 237.15 360.218 236.991 360.499 236.851C360.781 236.708 361.006 236.56 361.173 236.407C361.344 236.252 361.469 236.07 361.547 235.862C361.636 235.623 361.646 235.392 361.575 235.168C361.507 234.945 361.375 234.745 361.177 234.566C360.98 234.388 360.736 234.247 360.446 234.143C360.137 234.032 359.847 233.99 359.576 234.016C359.308 234.041 359.075 234.127 358.878 234.275C358.682 234.424 358.536 234.627 358.439 234.886L357.513 234.555C357.662 234.157 357.902 233.846 358.232 233.622C358.562 233.399 358.946 233.27 359.383 233.235C359.823 233.202 360.277 233.269 360.746 233.437C361.217 233.605 361.603 233.838 361.904 234.137C362.205 234.435 362.405 234.764 362.505 235.124C362.604 235.483 362.589 235.838 362.457 236.188C362.364 236.438 362.218 236.664 362.021 236.864C361.828 237.064 361.545 237.263 361.174 237.462C360.806 237.659 360.314 237.884 359.696 238.138L357.278 239.126L357.258 239.179L360.996 240.516L360.722 241.247L355.649 239.433ZM336.382 245.097C335.791 244.886 335.338 244.569 335.024 244.148C334.71 243.725 334.541 243.213 334.516 242.615C334.492 242.013 334.619 241.343 334.896 240.603C335.172 239.868 335.517 239.28 335.932 238.838C336.35 238.395 336.819 238.111 337.338 237.985C337.86 237.858 338.415 237.9 339.001 238.109C339.587 238.319 340.037 238.637 340.349 239.062C340.665 239.487 340.835 239.999 340.859 240.601C340.887 241.2 340.763 241.868 340.487 242.603C340.21 243.343 339.864 243.934 339.448 244.378C339.033 244.82 338.566 245.104 338.047 245.229C337.529 245.353 336.974 245.309 336.382 245.097ZM336.656 244.366C337.242 244.576 337.787 244.5 338.291 244.138C338.795 243.776 339.213 243.152 339.545 242.266C339.766 241.677 339.879 241.149 339.885 240.681C339.894 240.215 339.8 239.824 339.604 239.507C339.41 239.192 339.12 238.965 338.732 238.827C338.151 238.619 337.606 238.699 337.097 239.067C336.589 239.432 336.169 240.057 335.838 240.94C335.618 241.529 335.503 242.056 335.496 242.52C335.488 242.985 335.581 243.373 335.775 243.686C335.972 244 336.266 244.227 336.656 244.366ZM343.387 247.602C342.869 247.417 342.435 247.176 342.085 246.881C341.739 246.586 341.497 246.262 341.359 245.909C341.224 245.555 341.214 245.195 341.326 244.831L342.316 245.185C342.254 245.412 342.272 245.633 342.37 245.849C342.468 246.062 342.628 246.257 342.849 246.434C343.071 246.612 343.336 246.755 343.645 246.866C343.99 246.989 344.316 247.048 344.621 247.042C344.926 247.035 345.189 246.969 345.409 246.841C345.628 246.714 345.783 246.531 345.873 246.292C345.967 246.041 345.976 245.795 345.901 245.552C345.826 245.307 345.668 245.08 345.426 244.87C345.184 244.661 344.859 244.483 344.45 244.337L343.806 244.106L344.08 243.376L344.724 243.606C345.044 243.72 345.342 243.772 345.619 243.76C345.899 243.75 346.14 243.681 346.343 243.552C346.548 243.425 346.695 243.241 346.785 243.002C346.871 242.772 346.886 242.55 346.83 242.336C346.773 242.123 346.653 241.929 346.469 241.755C346.287 241.582 346.048 241.443 345.753 241.337C345.475 241.238 345.197 241.188 344.919 241.186C344.644 241.183 344.399 241.235 344.184 241.341C343.97 241.445 343.814 241.608 343.716 241.829L342.774 241.492C342.923 241.141 343.167 240.875 343.505 240.692C343.845 240.507 344.235 240.408 344.676 240.395C345.12 240.383 345.574 240.46 346.037 240.626C346.534 240.803 346.929 241.041 347.221 241.339C347.514 241.635 347.704 241.955 347.792 242.3C347.879 242.645 347.863 242.978 347.742 243.299C347.599 243.682 347.357 243.966 347.018 244.151C346.681 244.337 346.29 244.41 345.845 244.369L345.826 244.422C346.307 244.674 346.635 244.999 346.81 245.395C346.986 245.789 346.993 246.203 346.831 246.634C346.692 247.004 346.449 247.294 346.1 247.503C345.755 247.711 345.347 247.826 344.875 247.848C344.404 247.87 343.908 247.788 343.387 247.602ZM350.333 250.086C349.741 249.875 349.288 249.558 348.974 249.137C348.661 248.714 348.492 248.202 348.467 247.603C348.443 247.002 348.569 246.332 348.846 245.592C349.122 244.857 349.467 244.269 349.882 243.827C350.3 243.384 350.769 243.1 351.288 242.974C351.811 242.847 352.365 242.889 352.951 243.098C353.538 243.308 353.987 243.626 354.3 244.051C354.616 244.476 354.786 244.988 354.81 245.589C354.837 246.189 354.713 246.857 354.438 247.592C354.16 248.331 353.814 248.923 353.398 249.367C352.983 249.809 352.516 250.093 351.997 250.218C351.479 250.342 350.924 250.298 350.333 250.086ZM350.606 249.355C351.193 249.565 351.738 249.489 352.242 249.127C352.745 248.765 353.163 248.141 353.495 247.255C353.716 246.666 353.829 246.138 353.835 245.67C353.844 245.204 353.75 244.813 353.554 244.496C353.36 244.181 353.07 243.954 352.683 243.816C352.102 243.608 351.557 243.688 351.048 244.056C350.539 244.421 350.12 245.046 349.789 245.929C349.568 246.518 349.454 247.045 349.446 247.509C349.438 247.974 349.532 248.362 349.726 248.675C349.923 248.989 350.216 249.216 350.606 249.355Z" fill="white"/>
<path d="M325.467 224.028C325.169 223.922 324.942 223.763 324.784 223.552C324.627 223.339 324.542 223.083 324.53 222.783C324.518 222.481 324.581 222.145 324.72 221.774C324.859 221.406 325.032 221.111 325.24 220.889C325.45 220.667 325.686 220.525 325.946 220.462C326.209 220.398 326.487 220.419 326.782 220.524C327.076 220.629 327.302 220.788 327.459 221.002C327.617 221.215 327.702 221.472 327.715 221.773C327.728 222.074 327.666 222.409 327.528 222.778C327.389 223.148 327.215 223.445 327.006 223.668C326.798 223.889 326.563 224.031 326.302 224.094C326.042 224.156 325.764 224.134 325.467 224.028ZM325.604 223.661C325.898 223.767 326.172 223.729 326.425 223.547C326.678 223.365 326.888 223.053 327.055 222.608C327.165 222.313 327.222 222.048 327.225 221.814C327.23 221.58 327.183 221.384 327.084 221.225C326.987 221.067 326.841 220.953 326.647 220.884C326.355 220.779 326.081 220.819 325.826 221.004C325.57 221.187 325.36 221.5 325.193 221.943C325.083 222.239 325.025 222.503 325.021 222.736C325.017 222.968 325.064 223.163 325.162 223.32C325.261 223.478 325.408 223.592 325.604 223.661ZM327.655 224.757L330.593 222.385L330.603 222.358L328.521 221.614L328.659 221.248L331.245 222.172L331.1 222.558L328.167 224.94L327.655 224.757Z" fill="white"/>
<path d="M326.091 230.279L326.203 229.98L327.998 229.224C328.209 229.135 328.385 229.056 328.526 228.985C328.667 228.914 328.78 228.84 328.864 228.763C328.95 228.685 329.012 228.594 329.052 228.49C329.097 228.37 329.101 228.254 329.066 228.142C329.032 228.03 328.965 227.929 328.866 227.84C328.767 227.75 328.644 227.679 328.499 227.627C328.344 227.572 328.198 227.55 328.062 227.563C327.928 227.576 327.811 227.619 327.711 227.693C327.613 227.768 327.54 227.87 327.491 228L327.026 227.833C327.101 227.633 327.221 227.477 327.387 227.365C327.553 227.253 327.745 227.189 327.965 227.172C328.186 227.155 328.414 227.189 328.649 227.273C328.886 227.357 329.08 227.475 329.231 227.624C329.382 227.774 329.482 227.939 329.532 228.12C329.583 228.3 329.575 228.478 329.509 228.653C329.462 228.779 329.389 228.892 329.29 228.992C329.193 229.092 329.051 229.192 328.865 229.292C328.68 229.391 328.433 229.504 328.123 229.631L326.909 230.126L326.899 230.153L328.775 230.824L328.638 231.19L326.091 230.279ZM332.151 228.578L330.872 231.989L330.383 231.814L331.5 228.836L331.476 228.828L330.283 229.028L330.44 228.608L331.662 228.403L332.151 228.578Z" fill="white"/>
<path d="M186.915 151.738L182.899 162.5L181.36 161.947L184.866 152.552L184.792 152.525L181.037 153.155L181.532 151.831L185.376 151.186L186.915 151.738ZM186.555 163.812L186.908 162.866L192.555 160.485C193.217 160.206 193.77 159.956 194.214 159.734C194.66 159.508 195.015 159.274 195.279 159.032C195.548 158.787 195.745 158.5 195.868 158.17C196.009 157.792 196.024 157.426 195.912 157.072C195.804 156.719 195.594 156.402 195.282 156.119C194.97 155.836 194.584 155.612 194.125 155.447C193.637 155.272 193.179 155.205 192.75 155.246C192.328 155.284 191.96 155.421 191.648 155.654C191.339 155.889 191.109 156.211 190.956 156.621L189.491 156.095C189.727 155.465 190.105 154.973 190.626 154.62C191.147 154.267 191.753 154.063 192.445 154.01C193.14 153.957 193.858 154.064 194.598 154.33C195.343 154.598 195.953 154.968 196.429 155.44C196.905 155.913 197.222 156.434 197.38 157.003C197.538 157.573 197.514 158.134 197.308 158.687C197.16 159.083 196.931 159.44 196.62 159.757C196.314 160.073 195.868 160.387 195.282 160.701C194.701 161.013 193.923 161.369 192.948 161.77L189.128 163.33L189.096 163.414L195.005 165.536L194.574 166.692L186.555 163.812ZM201.377 169.301C200.558 169.007 199.872 168.626 199.319 168.157C198.771 167.69 198.388 167.177 198.169 166.618C197.957 166.057 197.939 165.489 198.116 164.913L199.68 165.474C199.584 165.833 199.613 166.183 199.767 166.524C199.922 166.862 200.175 167.172 200.526 167.452C200.876 167.733 201.295 167.961 201.784 168.136C202.33 168.332 202.844 168.426 203.326 168.416C203.808 168.407 204.223 168.301 204.57 168.1C204.917 167.899 205.162 167.609 205.303 167.231C205.451 166.835 205.465 166.445 205.346 166.061C205.228 165.673 204.977 165.313 204.594 164.98C204.212 164.648 203.697 164.366 203.052 164.135L202.034 163.769L202.466 162.613L203.483 162.979C203.988 163.16 204.46 163.242 204.898 163.224C205.34 163.208 205.721 163.099 206.041 162.896C206.365 162.694 206.598 162.405 206.739 162.026C206.875 161.662 206.898 161.311 206.808 160.973C206.719 160.635 206.528 160.328 206.237 160.052C205.949 159.778 205.572 159.558 205.105 159.39C204.666 159.232 204.227 159.152 203.787 159.149C203.352 159.144 202.965 159.225 202.626 159.393C202.287 159.558 202.041 159.815 201.887 160.165L200.398 159.63C200.633 159.075 201.018 158.653 201.553 158.365C202.089 158.072 202.705 157.916 203.402 157.897C204.104 157.878 204.821 158.001 205.553 158.264C206.339 158.546 206.963 158.923 207.425 159.395C207.889 159.863 208.19 160.37 208.328 160.917C208.467 161.463 208.441 161.99 208.252 162.498C208.026 163.104 207.645 163.553 207.108 163.845C206.577 164.139 205.959 164.253 205.256 164.187L205.225 164.271C205.986 164.672 206.505 165.186 206.782 165.814C207.06 166.438 207.072 167.092 206.817 167.775C206.599 168.36 206.215 168.818 205.664 169.148C205.119 169.477 204.474 169.659 203.729 169.693C202.984 169.728 202.2 169.597 201.377 169.301ZM208.791 169.294L209.191 168.222L217.57 162.745L218.488 163.075L217.869 164.736L217.248 164.513L210.917 168.651L210.886 168.735L218.408 171.436L217.977 172.592L208.791 169.294ZM213.951 173.649L214.896 171.117L215.082 170.617L217.967 162.888L219.432 163.414L215.415 174.175L213.951 173.649ZM228.312 178.973C227.584 178.711 226.974 178.353 226.482 177.899C225.99 177.444 225.648 176.94 225.456 176.386C225.264 175.832 225.253 175.276 225.424 174.718L226.913 175.253C226.789 175.761 226.9 176.257 227.244 176.742C227.594 177.225 228.094 177.584 228.744 177.817C229.265 178.004 229.767 178.067 230.25 178.006C230.736 177.946 231.163 177.778 231.529 177.5C231.901 177.221 232.173 176.851 232.344 176.392C232.519 175.923 232.553 175.461 232.446 175.005C232.345 174.548 232.123 174.136 231.781 173.771C231.439 173.406 230.997 173.124 230.456 172.926C230.069 172.783 229.65 172.69 229.202 172.648C228.754 172.603 228.368 172.613 228.043 172.679L226.658 172.015L229.404 166.995L236.008 169.366L235.577 170.522L230.264 168.614L228.632 171.628L228.707 171.654C229.033 171.573 229.414 171.545 229.85 171.57C230.287 171.596 230.718 171.685 231.144 171.838C231.922 172.117 232.556 172.524 233.047 173.058C233.543 173.589 233.863 174.189 234.008 174.857C234.157 175.526 234.102 176.209 233.841 176.906C233.585 177.593 233.174 178.141 232.609 178.549C232.049 178.956 231.394 179.202 230.645 179.286C229.896 179.367 229.119 179.263 228.312 178.973ZM239.194 182.88C238.675 182.686 238.185 182.415 237.724 182.066C237.263 181.718 236.888 181.276 236.6 180.739C236.314 180.199 236.162 179.555 236.146 178.807C236.131 178.054 236.31 177.181 236.681 176.186C237.037 175.233 237.457 174.427 237.943 173.767C238.43 173.104 238.968 172.592 239.558 172.231C240.149 171.868 240.776 171.656 241.441 171.597C242.11 171.539 242.803 171.639 243.519 171.896C244.23 172.152 244.818 172.5 245.283 172.94C245.752 173.379 246.083 173.875 246.275 174.429C246.468 174.983 246.512 175.557 246.407 176.151L244.893 175.607C244.932 175.073 244.809 174.574 244.523 174.11C244.236 173.645 243.758 173.293 243.087 173.052C242.103 172.698 241.191 172.782 240.354 173.304C239.52 173.827 238.857 174.743 238.364 176.051L238.463 176.087C238.806 175.873 239.176 175.717 239.573 175.622C239.976 175.524 240.393 175.487 240.825 175.511C241.257 175.535 241.691 175.625 242.125 175.781C242.853 176.043 243.462 176.436 243.951 176.961C244.441 177.483 244.768 178.079 244.931 178.749C245.095 179.416 245.047 180.096 244.788 180.789C244.54 181.455 244.137 182.001 243.578 182.429C243.021 182.852 242.363 183.113 241.605 183.21C240.851 183.305 240.048 183.195 239.194 182.88ZM239.625 181.724C240.147 181.911 240.655 181.969 241.151 181.897C241.652 181.826 242.091 181.648 242.47 181.363C242.853 181.079 243.129 180.71 243.299 180.255C243.465 179.81 243.498 179.363 243.398 178.914C243.304 178.463 243.092 178.055 242.764 177.691C242.439 177.328 242.016 177.053 241.495 176.866C241.102 176.725 240.711 176.66 240.322 176.671C239.934 176.679 239.57 176.75 239.228 176.886C238.891 177.023 238.595 177.213 238.34 177.455C238.087 177.694 237.9 177.974 237.78 178.297C237.62 178.724 237.589 179.166 237.686 179.622C237.788 180.079 238.003 180.496 238.331 180.872C238.664 181.25 239.096 181.534 239.625 181.724ZM246.332 185.276L255.571 177.797L255.602 177.713L249.048 175.359L249.48 174.203L257.623 177.127L257.168 178.346L247.946 185.856L246.332 185.276ZM259.68 190.236C258.828 189.93 258.123 189.532 257.564 189.041C257.011 188.549 256.637 188.011 256.442 187.429C256.248 186.843 256.261 186.26 256.482 185.68C256.648 185.223 256.91 184.84 257.269 184.532C257.63 184.221 258.044 184.002 258.514 183.877C258.988 183.749 259.47 183.733 259.96 183.83L259.983 183.767C259.425 183.415 259.049 182.952 258.855 182.378C258.662 181.801 258.674 181.227 258.892 180.657C259.091 180.11 259.437 179.68 259.929 179.368C260.421 179.055 261.003 178.879 261.675 178.838C262.351 178.799 263.062 178.913 263.807 179.181C264.543 179.445 265.155 179.806 265.641 180.263C266.128 180.719 266.456 181.222 266.626 181.772C266.8 182.323 266.788 182.873 266.588 183.421C266.371 183.99 265.996 184.434 265.465 184.752C264.939 185.067 264.353 185.185 263.707 185.104L263.684 185.167C264.117 185.402 264.469 185.717 264.739 186.112C265.01 186.503 265.183 186.933 265.257 187.4C265.333 187.864 265.288 188.325 265.122 188.782C264.901 189.362 264.521 189.813 263.983 190.137C263.45 190.458 262.81 190.631 262.064 190.657C261.323 190.681 260.528 190.541 259.68 190.236ZM260.112 189.08C260.687 189.287 261.213 189.386 261.69 189.379C262.166 189.371 262.572 189.265 262.907 189.059C263.242 188.853 263.483 188.559 263.631 188.175C263.778 187.767 263.788 187.363 263.661 186.964C263.533 186.565 263.291 186.2 262.936 185.87C262.585 185.541 262.14 185.28 261.602 185.087C261.06 184.892 260.543 184.808 260.05 184.833C259.561 184.86 259.136 184.986 258.776 185.21C258.42 185.436 258.168 185.752 258.02 186.16C257.872 186.544 257.856 186.92 257.973 187.287C258.093 187.656 258.335 187.995 258.698 188.304C259.061 188.614 259.532 188.872 260.112 189.08ZM262.018 183.973C262.473 184.136 262.905 184.204 263.315 184.176C263.728 184.15 264.088 184.035 264.394 183.831C264.7 183.627 264.924 183.34 265.067 182.97C265.199 182.604 265.216 182.251 265.118 181.91C265.021 181.565 264.824 181.256 264.528 180.983C264.232 180.706 263.851 180.484 263.383 180.316C262.907 180.145 262.463 180.071 262.051 180.094C261.64 180.113 261.287 180.224 260.99 180.428C260.695 180.628 260.482 180.911 260.35 181.276C260.207 181.646 260.183 182.005 260.279 182.353C260.378 182.703 260.577 183.018 260.875 183.3C261.174 183.582 261.555 183.806 262.018 183.973ZM279.467 184.804C279.987 184.995 280.477 185.266 280.937 185.618C281.397 185.97 281.771 186.414 282.059 186.95C282.348 187.483 282.501 188.124 282.517 188.872C282.533 189.621 282.357 190.489 281.988 191.477C281.631 192.434 281.206 193.244 280.714 193.91C280.227 194.573 279.688 195.087 279.097 195.451C278.511 195.816 277.883 196.027 277.214 196.085C276.549 196.144 275.858 196.045 275.142 195.788C274.431 195.533 273.84 195.186 273.37 194.747C272.906 194.306 272.576 193.808 272.38 193.253C272.189 192.696 272.149 192.116 272.262 191.512L273.776 192.056C273.729 192.599 273.847 193.105 274.132 193.572C274.423 194.038 274.904 194.392 275.574 194.632C276.555 194.984 277.464 194.9 278.301 194.378C279.143 193.858 279.811 192.936 280.305 191.612L280.206 191.576C279.864 191.787 279.494 191.942 279.096 192.042C278.697 192.141 278.282 192.178 277.85 192.154C277.418 192.13 276.983 192.04 276.544 191.882C275.816 191.621 275.204 191.228 274.71 190.705C274.221 190.18 273.894 189.584 273.73 188.917C273.572 188.249 273.622 187.567 273.881 186.874C274.126 186.215 274.525 185.675 275.077 185.253C275.634 184.83 276.289 184.569 277.044 184.47C277.803 184.373 278.611 184.485 279.467 184.804ZM279.036 185.96C278.515 185.773 278.004 185.715 277.503 185.785C277.009 185.854 276.57 186.03 276.187 186.314C275.81 186.595 275.538 186.96 275.37 187.409C275.203 187.857 275.166 188.307 275.261 188.758C275.361 189.207 275.573 189.613 275.897 189.975C276.227 190.336 276.653 190.61 277.174 190.797C277.567 190.939 277.958 191.005 278.345 190.997C278.734 190.986 279.097 190.912 279.435 190.775C279.778 190.636 280.076 190.447 280.329 190.208C280.584 189.966 280.771 189.685 280.89 189.367C281.046 188.946 281.074 188.509 280.971 188.055C280.872 187.603 280.657 187.187 280.324 186.81C279.995 186.433 279.566 186.15 279.036 185.96ZM286.347 199.811C285.412 199.476 284.696 198.974 284.199 198.307C283.703 197.637 283.435 196.827 283.394 195.879C283.355 194.928 283.554 193.867 283.991 192.697C284.425 191.534 284.97 190.603 285.624 189.905C286.285 189.204 287.025 188.755 287.845 188.557C288.67 188.357 289.546 188.423 290.473 188.756C291.4 189.089 292.111 189.592 292.605 190.266C293.105 190.938 293.375 191.75 293.414 192.702C293.458 193.651 293.263 194.707 292.829 195.87C292.392 197.04 291.846 197.976 291.19 198.678C290.535 199.377 289.798 199.825 288.978 200.023C288.159 200.218 287.282 200.147 286.347 199.811ZM286.778 198.655C287.705 198.988 288.566 198.868 289.362 198.296C290.157 197.724 290.817 196.737 291.34 195.336C291.687 194.404 291.866 193.568 291.874 192.828C291.887 192.09 291.738 191.47 291.428 190.97C291.121 190.47 290.662 190.111 290.05 189.891C289.131 189.561 288.27 189.687 287.466 190.268C286.664 190.846 286.002 191.834 285.481 193.232C285.133 194.164 284.953 194.997 284.942 195.732C284.93 196.466 285.078 197.082 285.386 197.577C285.698 198.075 286.162 198.434 286.778 198.655ZM301.665 192.941L297.648 203.703L296.109 203.15L299.616 193.755L299.541 193.728L295.787 194.358L296.281 193.034L300.125 192.389L301.665 192.941ZM305.395 206.651C304.46 206.315 303.744 205.814 303.247 205.147C302.751 204.476 302.483 203.667 302.443 202.719C302.404 201.767 302.602 200.707 303.039 199.537C303.473 198.374 304.018 197.443 304.672 196.744C305.333 196.044 306.073 195.595 306.893 195.397C307.718 195.196 308.594 195.263 309.521 195.596C310.448 195.928 311.159 196.432 311.653 197.106C312.153 197.778 312.423 198.59 312.462 199.541C312.506 200.491 312.311 201.547 311.877 202.71C311.441 203.88 310.894 204.816 310.238 205.518C309.583 206.216 308.846 206.665 308.026 206.863C307.207 207.057 306.33 206.987 305.395 206.651ZM305.826 205.495C306.753 205.828 307.614 205.708 308.41 205.136C309.205 204.563 309.865 203.576 310.388 202.175C310.735 201.243 310.914 200.408 310.922 199.668C310.935 198.93 310.786 198.31 310.476 197.809C310.169 197.31 309.71 196.95 309.098 196.731C308.179 196.401 307.318 196.527 306.515 197.108C305.712 197.686 305.05 198.674 304.529 200.071C304.181 201.003 304.001 201.836 303.99 202.571C303.978 203.306 304.126 203.921 304.434 204.417C304.746 204.914 305.21 205.274 305.826 205.495ZM317.669 208.389L318.069 207.317L326.448 201.84L327.366 202.17L326.747 203.83L326.126 203.608L319.795 207.746L319.764 207.83L327.286 210.531L326.855 211.687L317.669 208.389ZM322.828 212.744L323.774 210.211L323.96 209.712L326.845 201.983L328.31 202.509L324.293 213.27L322.828 212.744ZM332.274 216.303C331.546 216.041 330.936 215.683 330.444 215.228C329.952 214.774 329.61 214.269 329.418 213.716C329.226 213.162 329.215 212.606 329.386 212.048L330.875 212.583C330.752 213.09 330.862 213.587 331.206 214.072C331.556 214.555 332.056 214.913 332.706 215.147C333.227 215.334 333.729 215.397 334.212 215.336C334.698 215.276 335.125 215.108 335.491 214.83C335.863 214.55 336.135 214.181 336.306 213.722C336.481 213.253 336.515 212.79 336.409 212.335C336.307 211.877 336.085 211.466 335.743 211.101C335.401 210.736 334.959 210.454 334.419 210.256C334.031 210.113 333.613 210.02 333.164 209.978C332.716 209.933 332.33 209.943 332.005 210.009L330.62 209.345L333.367 204.324L339.97 206.696L339.539 207.852L334.226 205.944L332.595 208.957L332.669 208.984C332.995 208.903 333.376 208.875 333.812 208.9C334.249 208.926 334.68 209.015 335.106 209.168C335.884 209.447 336.518 209.854 337.009 210.387C337.505 210.919 337.825 211.519 337.97 212.187C338.119 212.856 338.064 213.539 337.804 214.236C337.547 214.923 337.136 215.47 336.571 215.879C336.011 216.286 335.356 216.531 334.607 216.616C333.859 216.697 333.081 216.592 332.274 216.303ZM343.156 220.21C342.637 220.016 342.147 219.744 341.686 219.396C341.225 219.048 340.85 218.605 340.562 218.069C340.276 217.529 340.125 216.885 340.108 216.136C340.094 215.384 340.272 214.511 340.643 213.516C340.999 212.563 341.419 211.757 341.905 211.097C342.392 210.433 342.93 209.922 343.52 209.561C344.111 209.197 344.739 208.986 345.404 208.927C346.073 208.869 346.765 208.969 347.481 209.226C348.193 209.481 348.781 209.829 349.245 210.27C349.715 210.709 350.045 211.205 350.238 211.759C350.43 212.313 350.474 212.886 350.369 213.481L348.855 212.937C348.895 212.403 348.771 211.904 348.485 211.439C348.198 210.975 347.72 210.622 347.049 210.382C346.065 210.028 345.154 210.112 344.316 210.634C343.483 211.157 342.819 212.073 342.326 213.381L342.426 213.417C342.768 213.202 343.138 213.047 343.535 212.951C343.938 212.854 344.355 212.817 344.787 212.841C345.219 212.865 345.653 212.955 346.087 213.111C346.815 213.372 347.424 213.766 347.913 214.291C348.403 214.813 348.73 215.409 348.893 216.079C349.057 216.745 349.009 217.426 348.751 218.119C348.502 218.785 348.099 219.331 347.541 219.758C346.984 220.182 346.326 220.442 345.567 220.539C344.813 220.634 344.01 220.524 343.156 220.21ZM343.587 219.054C344.109 219.241 344.618 219.299 345.114 219.227C345.614 219.156 346.053 218.978 346.432 218.693C346.815 218.409 347.091 218.04 347.261 217.584C347.427 217.139 347.46 216.692 347.36 216.243C347.266 215.792 347.054 215.385 346.726 215.021C346.401 214.658 345.978 214.383 345.457 214.196C345.064 214.054 344.673 213.989 344.284 214.001C343.896 214.009 343.532 214.08 343.19 214.216C342.853 214.353 342.557 214.543 342.302 214.785C342.049 215.024 341.862 215.304 341.742 215.626C341.582 216.054 341.551 216.495 341.648 216.951C341.75 217.409 341.965 217.826 342.294 218.202C342.627 218.58 343.058 218.864 343.587 219.054ZM350.294 222.606L359.533 215.126L359.564 215.042L353.01 212.689L353.442 211.533L361.585 214.457L361.13 215.676L351.908 223.186L350.294 222.606Z" fill="white"/>
<path d="M214.313 219.282L216.856 212.477L221.677 214.206L221.404 214.937L217.556 213.557L216.697 215.857L220.183 217.107L219.91 217.838L216.424 216.588L215.287 219.631L214.313 219.282ZM220.676 221.564L222.583 216.46L223.51 216.793L221.602 221.896L220.676 221.564ZM223.372 215.779C223.192 215.714 223.055 215.606 222.963 215.455C222.874 215.305 222.857 215.157 222.911 215.01C222.966 214.864 223.077 214.762 223.244 214.704C223.414 214.647 223.589 214.65 223.77 214.715C223.95 214.78 224.085 214.887 224.174 215.038C224.266 215.189 224.285 215.337 224.23 215.483C224.176 215.63 224.064 215.731 223.894 215.789C223.727 215.847 223.553 215.843 223.372 215.779ZM225.373 219.767L224.226 222.837L223.299 222.505L225.207 217.401L226.102 217.722L225.804 218.52L225.882 218.548C226.12 218.339 226.413 218.208 226.76 218.154C227.107 218.098 227.509 218.151 227.964 218.315C228.372 218.461 228.703 218.66 228.956 218.912C229.21 219.161 229.369 219.459 229.432 219.806C229.497 220.15 229.447 220.54 229.285 220.974L228.073 224.217L227.147 223.885L228.339 220.695C228.489 220.294 228.482 219.937 228.32 219.625C228.158 219.311 227.863 219.077 227.434 218.923C227.138 218.817 226.853 218.777 226.58 218.802C226.309 218.828 226.068 218.921 225.857 219.081C225.645 219.242 225.484 219.47 225.373 219.767ZM231.496 225.58C231.114 225.443 230.79 225.258 230.524 225.024C230.259 224.789 230.078 224.522 229.982 224.223C229.887 223.923 229.901 223.606 230.025 223.274C230.134 222.982 230.291 222.769 230.495 222.636C230.7 222.501 230.935 222.422 231.202 222.4C231.469 222.378 231.749 222.39 232.043 222.438C232.34 222.484 232.635 222.542 232.926 222.611C233.308 222.703 233.616 222.78 233.851 222.841C234.089 222.902 234.271 222.925 234.394 222.912C234.521 222.899 234.608 222.83 234.655 222.704L234.665 222.677C234.787 222.349 234.776 222.057 234.632 221.799C234.491 221.542 234.207 221.337 233.78 221.184C233.338 221.026 232.96 220.983 232.648 221.057C232.335 221.131 232.093 221.242 231.922 221.392L231.142 220.811C231.414 220.557 231.714 220.391 232.04 220.312C232.37 220.231 232.704 220.213 233.041 220.256C233.381 220.298 233.703 220.373 234.007 220.482C234.201 220.551 234.416 220.651 234.652 220.781C234.892 220.91 235.107 221.076 235.298 221.28C235.491 221.485 235.622 221.737 235.688 222.034C235.755 222.332 235.713 222.684 235.561 223.089L234.305 226.452L233.378 226.12L233.636 225.428L233.589 225.412C233.485 225.5 233.336 225.581 233.142 225.654C232.949 225.728 232.714 225.766 232.437 225.767C232.16 225.768 231.847 225.706 231.496 225.58ZM231.901 224.927C232.267 225.058 232.599 225.108 232.896 225.076C233.195 225.045 233.445 224.957 233.645 224.81C233.848 224.664 233.989 224.485 234.069 224.272L234.337 223.554C234.283 223.58 234.183 223.586 234.037 223.571C233.894 223.555 233.732 223.528 233.55 223.491C233.372 223.452 233.198 223.412 233.029 223.372C232.864 223.33 232.729 223.297 232.626 223.272C232.375 223.213 232.134 223.175 231.902 223.16C231.674 223.143 231.474 223.171 231.301 223.242C231.133 223.312 231.011 223.447 230.937 223.646C230.835 223.919 230.877 224.167 231.063 224.392C231.252 224.616 231.532 224.794 231.901 224.927ZM238.07 224.32L236.922 227.391L235.996 227.058L237.903 221.955L238.798 222.276L238.5 223.073L238.579 223.101C238.817 222.893 239.109 222.761 239.456 222.707C239.804 222.651 240.205 222.705 240.66 222.868C241.069 223.014 241.399 223.213 241.653 223.465C241.907 223.714 242.065 224.013 242.129 224.359C242.193 224.704 242.144 225.093 241.982 225.527L240.77 228.77L239.843 228.438L241.035 225.248C241.185 224.847 241.179 224.491 241.016 224.179C240.855 223.865 240.559 223.631 240.13 223.477C239.834 223.371 239.55 223.33 239.276 223.355C239.005 223.381 238.764 223.474 238.553 223.635C238.342 223.795 238.181 224.024 238.07 224.32ZM244.873 230.363C244.307 230.16 243.863 229.872 243.539 229.5C243.215 229.127 243.017 228.704 242.946 228.228C242.874 227.753 242.933 227.26 243.124 226.751C243.318 226.233 243.601 225.816 243.974 225.5C244.351 225.183 244.784 224.985 245.273 224.907C245.766 224.827 246.285 224.885 246.829 225.08C247.253 225.232 247.61 225.436 247.901 225.691C248.191 225.946 248.401 226.232 248.528 226.549C248.656 226.866 248.687 227.194 248.62 227.531L247.693 227.199C247.71 226.941 247.63 226.679 247.453 226.412C247.28 226.144 246.99 225.937 246.581 225.79C246.22 225.661 245.874 225.627 245.542 225.689C245.214 225.749 244.92 225.897 244.66 226.13C244.404 226.362 244.204 226.671 244.06 227.057C243.913 227.451 243.858 227.821 243.895 228.166C243.935 228.511 244.06 228.814 244.269 229.072C244.481 229.331 244.77 229.527 245.136 229.658C245.377 229.744 245.609 229.787 245.831 229.787C246.054 229.786 246.259 229.744 246.444 229.66C246.63 229.576 246.786 229.451 246.914 229.286L247.84 229.618C247.675 229.901 247.444 230.125 247.147 230.293C246.854 230.459 246.512 230.552 246.121 230.573C245.734 230.592 245.318 230.522 244.873 230.363ZM251.127 232.605C250.546 232.397 250.085 232.109 249.745 231.741C249.408 231.371 249.199 230.949 249.118 230.476C249.04 230.001 249.099 229.502 249.294 228.979C249.49 228.456 249.774 228.036 250.149 227.718C250.526 227.399 250.96 227.2 251.449 227.121C251.942 227.042 252.46 227.1 253.005 227.295C253.319 227.408 253.612 227.563 253.885 227.762C254.158 227.96 254.383 228.204 254.56 228.494C254.738 228.781 254.84 229.114 254.868 229.493C254.895 229.872 254.82 230.3 254.642 230.776L254.518 231.109L249.869 229.441L250.123 228.764L253.829 230.093C253.936 229.805 253.964 229.523 253.913 229.249C253.864 228.975 253.739 228.728 253.54 228.508C253.342 228.289 253.076 228.12 252.741 228C252.372 227.867 252.024 227.83 251.696 227.889C251.372 227.946 251.092 228.071 250.857 228.266C250.621 228.46 250.45 228.698 250.345 228.979L250.176 229.431C250.032 229.816 249.989 230.171 250.045 230.496C250.106 230.819 250.251 231.101 250.482 231.342C250.713 231.58 251.016 231.767 251.39 231.901C251.633 231.988 251.864 232.038 252.082 232.051C252.303 232.063 252.508 232.036 252.696 231.97C252.884 231.902 253.051 231.793 253.196 231.644L254.011 232.178C253.821 232.401 253.578 232.57 253.283 232.685C252.988 232.798 252.657 232.85 252.29 232.842C251.923 232.831 251.535 232.752 251.127 232.605ZM260.138 228.828L260.411 228.097L266.441 230.26L266.168 230.991L263.64 230.084L261.37 236.158L260.396 235.809L262.666 229.735L260.138 228.828ZM264.649 237.335L266.557 232.231L267.452 232.552L267.164 233.323L267.226 233.345C267.431 233.132 267.706 232.998 268.053 232.944C268.399 232.89 268.753 232.928 269.115 233.058C269.183 233.082 269.267 233.114 269.369 233.153C269.47 233.191 269.546 233.222 269.596 233.246L269.298 234.043C269.27 234.025 269.201 233.989 269.094 233.936C268.99 233.881 268.876 233.831 268.753 233.787C268.46 233.682 268.179 233.64 267.909 233.662C267.644 233.682 267.41 233.759 267.209 233.893C267.011 234.025 266.869 234.207 266.783 234.437L265.576 237.667L264.649 237.335ZM270.492 239.566C270.11 239.429 269.786 239.243 269.52 239.01C269.255 238.774 269.075 238.507 268.978 238.209C268.883 237.908 268.897 237.592 269.021 237.26C269.131 236.967 269.287 236.755 269.491 236.622C269.696 236.487 269.932 236.408 270.198 236.385C270.465 236.363 270.745 236.376 271.039 236.423C271.336 236.47 271.631 236.527 271.922 236.597C272.304 236.688 272.612 236.765 272.847 236.827C273.086 236.887 273.267 236.911 273.391 236.897C273.517 236.885 273.604 236.815 273.651 236.689L273.661 236.663C273.783 236.335 273.773 236.042 273.628 235.784C273.487 235.528 273.203 235.323 272.776 235.17C272.334 235.011 271.957 234.969 271.644 235.043C271.332 235.116 271.089 235.228 270.918 235.377L270.138 234.796C270.411 234.542 270.71 234.376 271.037 234.297C271.366 234.217 271.7 234.198 272.037 234.241C272.378 234.283 272.7 234.358 273.003 234.467C273.197 234.537 273.412 234.637 273.648 234.766C273.888 234.895 274.103 235.062 274.294 235.266C274.488 235.471 274.618 235.722 274.685 236.02C274.751 236.318 274.709 236.669 274.558 237.075L273.301 240.437L272.374 240.105L272.633 239.414L272.586 239.397C272.481 239.485 272.332 239.566 272.139 239.64C271.945 239.714 271.71 239.751 271.433 239.752C271.157 239.754 270.843 239.692 270.492 239.566ZM270.897 238.912C271.263 239.043 271.595 239.093 271.892 239.062C272.191 239.031 272.441 238.942 272.641 238.795C272.844 238.649 272.985 238.47 273.065 238.258L273.333 237.54C273.279 237.566 273.179 237.571 273.033 237.557C272.891 237.541 272.728 237.514 272.547 237.476C272.368 237.437 272.194 237.398 272.026 237.357C271.86 237.316 271.726 237.282 271.622 237.258C271.371 237.198 271.13 237.161 270.898 237.145C270.67 237.129 270.47 237.156 270.298 237.228C270.129 237.298 270.007 237.432 269.933 237.632C269.831 237.904 269.873 238.153 270.059 238.378C270.249 238.602 270.528 238.78 270.897 238.912ZM277.402 242.029C276.837 241.826 276.392 241.538 276.068 241.166C275.744 240.794 275.547 240.37 275.475 239.894C275.403 239.419 275.463 238.927 275.653 238.417C275.847 237.899 276.13 237.482 276.504 237.166C276.88 236.849 277.313 236.651 277.803 236.573C278.295 236.493 278.814 236.551 279.358 236.746C279.782 236.899 280.14 237.102 280.43 237.357C280.721 237.612 280.93 237.898 281.058 238.215C281.186 238.532 281.216 238.86 281.149 239.197L280.223 238.865C280.239 238.607 280.159 238.345 279.983 238.078C279.81 237.81 279.519 237.603 279.111 237.457C278.75 237.327 278.403 237.293 278.071 237.355C277.743 237.416 277.449 237.563 277.19 237.796C276.934 238.029 276.734 238.337 276.59 238.723C276.442 239.117 276.387 239.487 276.424 239.832C276.464 240.178 276.589 240.48 276.798 240.738C277.01 240.998 277.299 241.193 277.665 241.324C277.906 241.411 278.138 241.454 278.361 241.453C278.583 241.453 278.788 241.41 278.974 241.326C279.159 241.242 279.316 241.117 279.443 240.952L280.369 241.284C280.204 241.567 279.973 241.792 279.676 241.959C279.383 242.125 279.041 242.218 278.65 242.239C278.263 242.258 277.847 242.188 277.402 242.029ZM282.727 241.708L283.073 240.732L283.262 240.799L286.75 239.473L287.896 239.884L284.186 241.281L284.107 241.253L282.727 241.708ZM281.168 243.259L283.711 236.453L284.637 236.786L282.094 243.591L281.168 243.259ZM284.999 244.633L283.587 241.263L284.451 240.954L286.177 245.055L284.999 244.633ZM289.421 246.339C288.84 246.131 288.38 245.843 288.039 245.474C287.703 245.105 287.494 244.683 287.412 244.21C287.335 243.734 287.393 243.236 287.589 242.713C287.784 242.19 288.069 241.77 288.443 241.452C288.821 241.132 289.254 240.934 289.743 240.855C290.236 240.776 290.755 240.834 291.299 241.029C291.613 241.142 291.907 241.297 292.18 241.495C292.453 241.694 292.678 241.938 292.855 242.227C293.032 242.515 293.135 242.848 293.162 243.227C293.19 243.606 293.114 244.034 292.936 244.51L292.812 244.842L288.164 243.175L288.417 242.497L292.123 243.827C292.231 243.539 292.259 243.257 292.207 242.982C292.158 242.709 292.034 242.462 291.834 242.242C291.637 242.023 291.371 241.853 291.036 241.733C290.667 241.601 290.318 241.564 289.991 241.622C289.667 241.679 289.387 241.805 289.151 241.999C288.915 242.194 288.745 242.431 288.64 242.713L288.471 243.165C288.327 243.55 288.283 243.905 288.34 244.229C288.4 244.552 288.546 244.834 288.776 245.075C289.007 245.314 289.31 245.501 289.685 245.635C289.928 245.722 290.159 245.772 290.376 245.785C290.598 245.797 290.802 245.769 290.99 245.704C291.179 245.636 291.345 245.527 291.49 245.378L292.306 245.912C292.116 246.135 291.873 246.304 291.577 246.419C291.283 246.532 290.952 246.584 290.584 246.575C290.217 246.564 289.83 246.486 289.421 246.339ZM293.367 247.634L295.275 242.53L296.17 242.851L295.882 243.622L295.945 243.645C296.149 243.431 296.424 243.298 296.771 243.244C297.118 243.19 297.472 243.228 297.833 243.357C297.901 243.381 297.985 243.413 298.087 243.452C298.188 243.491 298.264 243.522 298.315 243.545L298.017 244.342C297.988 244.325 297.919 244.289 297.812 244.235C297.708 244.18 297.594 244.131 297.471 244.086C297.178 243.981 296.897 243.94 296.628 243.961C296.362 243.981 296.128 244.058 295.927 244.192C295.729 244.325 295.587 244.506 295.501 244.736L294.294 247.966L293.367 247.634Z" fill="white"/>
<path fill-rule="evenodd" clip-rule="evenodd" d="M280.236 133.365L287.221 135.716C290.189 136.712 292.649 139.707 292.729 142.407L292.82 145.518L284.853 142.84C281.825 141.818 279.294 138.749 279.213 135.988C279.18 134.868 279.561 133.968 280.229 133.365L280.236 133.365ZM285.617 152.187L293.088 154.698L292.846 146.403L285.374 143.891L285.617 152.187ZM278.247 135.661C278.215 134.567 278.52 133.655 279.065 132.971L268.998 129.585C269.594 130.656 269.959 131.789 269.991 132.882C270.082 135.98 267.516 137.637 264.183 136.744L264.427 145.08C267.774 146.432 270.488 149.865 270.579 152.963C270.62 154.374 270.11 155.483 269.235 156.195L280.397 159.949C279.462 158.629 278.876 157.153 278.835 155.742C278.744 152.644 281.31 150.987 284.643 151.88L284.399 143.544C281.052 142.192 278.337 138.759 278.247 135.661ZM285.156 152.911C282.127 151.889 279.728 153.309 279.809 156.069C279.852 157.547 280.598 159.111 281.751 160.403L288.013 162.507C290.981 163.502 293.313 162.123 293.234 159.423L293.122 155.589L285.156 152.911ZM263.67 135.713C266.698 136.728 269.098 135.316 269.017 132.555C268.984 131.434 268.543 130.255 267.826 129.191L260.841 126.839C257.874 125.844 255.541 127.223 255.62 129.923L255.711 133.035L263.678 135.713L263.67 135.713ZM269.605 152.636C269.524 149.875 266.993 146.806 263.965 145.784L255.999 143.106L256.111 146.94C256.19 149.64 258.658 152.635 261.618 153.63L267.88 155.734C268.972 155.197 269.648 154.108 269.605 152.629L269.605 152.636ZM263.209 136.437L255.737 133.926L255.98 142.221L263.452 144.733L263.209 136.437Z" fill="white"/>
<path d="M312.971 167.984C312.845 167.943 312.718 167.867 312.605 167.756C312.332 167.485 312.268 167.122 312.459 166.939C314.423 165.123 315.42 162.517 315.34 159.407C315.259 156.298 314.109 152.986 312.016 149.821C311.812 149.508 311.859 149.179 312.122 149.093C312.386 149 312.766 149.18 312.978 149.493C315.234 152.902 316.469 156.471 316.556 159.818C316.642 163.165 315.572 165.968 313.455 167.925C313.34 168.031 313.161 168.046 312.971 167.984Z" fill="white"/>
<path d="M309.771 165.089C309.637 165.041 309.502 164.959 309.389 164.841C309.124 164.563 309.076 164.201 309.275 164.032C310.934 162.682 311.808 160.583 311.743 158.121C311.679 155.659 310.678 152.937 308.918 150.451C308.699 150.145 308.729 149.81 308.992 149.704C309.247 149.597 309.626 149.762 309.845 150.068C311.783 152.804 312.886 155.811 312.957 158.525C313.028 161.238 312.066 163.554 310.238 165.038C310.123 165.129 309.952 165.144 309.771 165.082L309.771 165.089Z" fill="white"/>
<path d="M306.54 162.156C306.391 162.108 306.24 162.004 306.12 161.866C305.871 161.575 305.854 161.228 306.083 161.08C307.468 160.203 308.205 158.696 308.155 156.826C308.104 154.955 307.23 152.811 305.686 150.949C305.444 150.659 305.435 150.311 305.665 150.17C305.895 150.037 306.279 150.167 306.521 150.458C308.29 152.61 309.296 155.011 309.356 157.229C309.416 159.448 308.566 161.122 306.975 162.132C306.86 162.203 306.705 162.21 306.54 162.156Z" fill="white"/>
<path d="M303.145 159.101C302.95 159.033 302.753 158.882 302.631 158.682C302.445 158.365 302.513 158.06 302.79 157.99C303.926 157.701 304.58 156.785 304.545 155.54C304.511 154.295 303.792 152.923 302.618 151.856C302.333 151.602 302.245 151.236 302.418 151.041C302.59 150.847 302.962 150.893 303.248 151.155C304.771 152.537 305.709 154.324 305.755 155.942C305.8 157.56 304.944 158.747 303.471 159.127C303.371 159.156 303.262 159.142 303.153 159.108L303.145 159.101Z" fill="white"/>
<g opacity="0.75">
<path d="M140.502 53.3756C141.652 53.3714 142.898 53.5754 144.21 54.0147L401.379 140.425C407.259 142.402 412.159 148.346 412.315 153.702L416.357 292.247C416.478 296.412 413.698 298.992 409.694 299.007C408.545 299.011 407.299 298.807 405.986 298.368L148.81 211.957C142.929 209.98 138.03 204.036 137.874 198.681L133.832 60.1361C133.711 55.9712 136.491 53.3904 140.495 53.3757M140.475 52.7028C135.923 52.7196 132.952 55.7115 133.081 60.1388L137.123 198.683C137.286 204.288 142.412 210.521 148.558 212.584L405.726 298.995C407.092 299.454 408.429 299.685 409.706 299.68C414.259 299.663 417.23 296.678 417.1 292.244L413.059 153.699C412.895 148.095 407.762 141.862 401.624 139.799L144.455 53.388C143.089 52.9287 141.752 52.6981 140.483 52.7028L140.475 52.7028Z" fill="url(#paint4_linear_1_236)"/>
</g>
<g opacity="0.75">
<path d="M140.502 53.3756C141.652 53.3714 142.898 53.5754 144.21 54.0147L401.379 140.425C407.259 142.402 412.159 148.346 412.315 153.702L416.357 292.247C416.478 296.412 413.698 298.992 409.694 299.007C408.545 299.011 407.299 298.807 405.986 298.368L148.81 211.957C142.929 209.98 138.03 204.036 137.874 198.681L133.832 60.1361C133.711 55.9712 136.491 53.3904 140.495 53.3757M140.475 52.7028C135.923 52.7196 132.952 55.7115 133.081 60.1388L137.123 198.683C137.286 204.288 142.412 210.521 148.558 212.584L405.726 298.995C407.092 299.454 408.429 299.685 409.706 299.68C414.259 299.663 417.23 296.678 417.1 292.244L413.059 153.699C412.895 148.095 407.762 141.862 401.624 139.799L144.455 53.388C143.089 52.9287 141.752 52.6981 140.483 52.7028L140.475 52.7028Z" fill="url(#paint5_linear_1_236)"/>
</g>
</g>
<defs>
<filter id="filter0_d_1_236" x="144.756" y="0.893929" width="381.801" height="344.724" filterUnits="userSpaceOnUse" color-interpolation-filters="sRGB">
<feFlood flood-opacity="0" result="BackgroundImageFix"/>
<feColorMatrix in="SourceAlpha" type="matrix" values="0 0 0 0 0 0 0 0 0 0 0 0 0 0 0 0 0 0 127 0" result="hardAlpha"/>
<feMorphology radius="21.7239" operator="dilate" in="SourceAlpha" result="effect1_dropShadow_1_236"/>
<feOffset dx="2.17239" dy="27.1549"/>
<feGaussianBlur stdDeviation="13.5774"/>
<feColorMatrix type="matrix" values="0 0 0 0 0 0 0 0 0 0 0 0 0 0 0 0 0 0 0.14 0"/>
<feBlend mode="normal" in2="BackgroundImageFix" result="effect1_dropShadow_1_236"/>
<feBlend mode="normal" in="SourceGraphic" in2="effect1_dropShadow_1_236" result="shape"/>
</filter>
<filter id="filter1_d_1_236" x="86.3706" y="30.9789" width="381.785" height="344.735" filterUnits="userSpaceOnUse" color-interpolation-filters="sRGB">
<feFlood flood-opacity="0" result="BackgroundImageFix"/>
<feColorMatrix in="SourceAlpha" type="matrix" values="0 0 0 0 0 0 0 0 0 0 0 0 0 0 0 0 0 0 127 0" result="hardAlpha"/>
<feMorphology radius="21.7239" operator="dilate" in="SourceAlpha" result="effect1_dropShadow_1_236"/>
<feOffset dx="2.17239" dy="27.1549"/>
<feGaussianBlur stdDeviation="13.5774"/>
<feColorMatrix type="matrix" values="0 0 0 0 0 0 0 0 0 0 0 0 0 0 0 0 0 0 0.14 0"/>
<feBlend mode="normal" in2="BackgroundImageFix" result="effect1_dropShadow_1_236"/>
<feBlend mode="normal" in="SourceGraphic" in2="effect1_dropShadow_1_236" result="shape"/>
</filter>
<linearGradient id="paint0_linear_1_236" x1="337.015" y1="269.346" x2="336.108" y2="22.7783" gradientUnits="userSpaceOnUse">
<stop stop-color="#05074A"/>
<stop offset="0.703282" stop-color="#0B3879"/>
</linearGradient>
<linearGradient id="paint1_linear_1_236" x1="169.561" y1="63.1985" x2="481.571" y2="254.803" gradientUnits="userSpaceOnUse">
<stop offset="0.12" stop-color="white" stop-opacity="0"/>
<stop offset="1" stop-color="white" stop-opacity="0.9"/>
</linearGradient>
<linearGradient id="paint2_linear_1_236" x1="169.561" y1="63.1985" x2="481.571" y2="254.803" gradientUnits="userSpaceOnUse">
<stop stop-color="white" stop-opacity="0.6"/>
<stop offset="0.13" stop-color="white" stop-opacity="0"/>
</linearGradient>
<linearGradient id="paint3_linear_1_236" x1="278.612" y1="299.508" x2="277.667" y2="52.7965" gradientUnits="userSpaceOnUse">
<stop stop-color="#05074A"/>
<stop offset="1" stop-color="#43BBE6"/>
</linearGradient>
<linearGradient id="paint4_linear_1_236" x1="111.177" y1="93.2864" x2="423.187" y2="284.869" gradientUnits="userSpaceOnUse">
<stop offset="0.12" stop-color="white" stop-opacity="0"/>
<stop offset="1" stop-color="white" stop-opacity="0.9"/>
</linearGradient>
<linearGradient id="paint5_linear_1_236" x1="111.177" y1="93.2864" x2="423.187" y2="284.869" gradientUnits="userSpaceOnUse">
<stop stop-color="white" stop-opacity="0.6"/>
<stop offset="0.13" stop-color="white" stop-opacity="0"/>
</linearGradient>
</defs>
</svg>
