<svg width="18" height="18" viewBox="0 0 18 18" fill="none" xmlns="http://www.w3.org/2000/svg">
<path d="M7.81071 7.22009C7.57671 7.37653 7.37581 7.57753 7.21949 7.81162C7.06316 8.0457 6.95447 8.30829 6.89963 8.58437C6.78887 9.14196 6.90414 9.72071 7.22009 10.1933C7.53604 10.6659 8.02679 10.9936 8.58437 11.1044C9.14196 11.2152 9.72071 11.0999 10.1933 10.7839C10.6659 10.468 10.9936 9.97723 11.1044 9.41964C11.2152 8.86206 11.0999 8.28331 10.7839 7.81071C10.468 7.33812 9.97723 7.01039 9.41964 6.89963C8.86206 6.78887 8.28331 6.90414 7.81071 7.22009ZM13.5281 4.47188C13.3192 4.26295 13.0661 4.09821 12.7888 3.98973C12.0616 3.70446 10.4746 3.71652 9.45 3.72857C9.28527 3.72857 9.13259 3.73259 9 3.73259C8.86741 3.73259 8.71071 3.73259 8.54196 3.72857C7.51741 3.71652 5.93839 3.70045 5.21116 3.98973C4.93393 4.09821 4.68482 4.26295 4.47188 4.47188C4.25893 4.6808 4.09821 4.93393 3.98973 5.21116C3.70446 5.93839 3.72054 7.52946 3.72857 8.55402C3.72857 8.71875 3.73259 8.87143 3.73259 9C3.73259 9.12857 3.73259 9.28125 3.72857 9.44598C3.72054 10.4705 3.70446 12.0616 3.98973 12.7888C4.09821 13.0661 4.26295 13.3152 4.47188 13.5281C4.6808 13.7411 4.93393 13.9018 5.21116 14.0103C5.93839 14.2955 7.52545 14.2835 8.55 14.2714C8.71473 14.2714 8.86741 14.2674 9 14.2674C9.13259 14.2674 9.28929 14.2674 9.45804 14.2714C10.4826 14.2835 12.0616 14.2996 12.7888 14.0103C13.0661 13.9018 13.3152 13.7371 13.5281 13.5281C13.7411 13.3192 13.9018 13.0661 14.0103 12.7888C14.2996 12.0656 14.2835 10.4826 14.2714 9.45402C14.2714 9.28527 14.2674 9.12857 14.2674 8.99598C14.2674 8.86339 14.2674 8.71071 14.2714 8.53795C14.2835 7.51339 14.2996 5.93036 14.0103 5.20312C13.9018 4.92589 13.7371 4.67679 13.5281 4.46384V4.47188ZM10.8321 6.25982C11.5589 6.74574 12.0628 7.50045 12.2331 8.35792C12.4034 9.2154 12.2261 10.1054 11.7402 10.8321C11.4996 11.192 11.1905 11.5009 10.8305 11.7413C10.4705 11.9817 10.0667 12.1488 9.64208 12.2331C8.7846 12.4034 7.8946 12.2261 7.16786 11.7402C6.44112 11.2548 5.93696 10.5006 5.76629 9.6435C5.59563 8.7864 5.77243 7.89661 6.25781 7.16987C6.74319 6.44313 7.49739 5.93897 8.35449 5.7683C9.21159 5.59763 10.1014 5.77444 10.8281 6.25982H10.8321ZM12.0054 6.20759C11.8808 6.12321 11.7804 6.00268 11.7201 5.86205C11.6598 5.72143 11.6478 5.56875 11.6759 5.41607C11.704 5.26339 11.7804 5.1308 11.8848 5.02232C11.9893 4.91384 12.1299 4.84152 12.2786 4.81339C12.4272 4.78527 12.5839 4.79732 12.7246 4.85759C12.8652 4.91786 12.9857 5.01429 13.0701 5.13884C13.1545 5.26339 13.1987 5.41205 13.1987 5.56473C13.1987 5.66518 13.1786 5.76562 13.1424 5.85804C13.1062 5.95045 13.046 6.03482 12.9777 6.10714C12.9094 6.17946 12.821 6.23571 12.7286 6.27589C12.6362 6.31607 12.5357 6.33616 12.4353 6.33616C12.2826 6.33616 12.1339 6.29196 12.0094 6.20759H12.0054ZM18 2.57143C18 1.15313 16.8469 0 15.4286 0H2.57143C1.15313 0 0 1.15313 0 2.57143V15.4286C0 16.8469 1.15313 18 2.57143 18H15.4286C16.8469 18 18 16.8469 18 15.4286V2.57143ZM14.3438 14.3438C13.5924 15.0951 12.6804 15.3321 11.6518 15.3844C10.5911 15.4446 7.40893 15.4446 6.34821 15.3844C5.31964 15.3321 4.40759 15.0951 3.65625 14.3438C2.90491 13.5924 2.66786 12.6804 2.61964 11.6518C2.55937 10.5911 2.55937 7.40893 2.61964 6.34821C2.67187 5.31964 2.90491 4.40759 3.65625 3.65625C4.40759 2.90491 5.32366 2.66786 6.34821 2.61964C7.40893 2.55937 10.5911 2.55937 11.6518 2.61964C12.6804 2.67187 13.5924 2.90491 14.3438 3.65625C15.0951 4.40759 15.3321 5.31964 15.3804 6.34821C15.4406 7.40491 15.4406 10.583 15.3804 11.6478C15.3281 12.6763 15.0951 13.5884 14.3438 14.3397V14.3438Z" fill="#05074A"/>
</svg>
