<svg width="44" height="44" viewBox="0 0 44 44" fill="none" xmlns="http://www.w3.org/2000/svg">
<path d="M44 35.75V38.5H0V5.5H2.75V35.75H44ZM41.25 8.9375V18.2875V18.2902C41.25 18.6684 40.9434 18.975 40.5653 18.975C40.37 18.975 40.1926 18.8925 40.0689 18.7605L37.4701 16.1617L23.8714 29.7564C23.7476 29.8898 23.5716 29.9722 23.3764 29.9722C23.1811 29.9722 23.0051 29.8898 22.8814 29.7564L17.8764 24.75L8.93888 33.6875L4.81387 29.5625L17.3814 16.9936C17.5051 16.8603 17.6811 16.7778 17.8764 16.7778C18.0716 16.7778 18.2476 16.8603 18.3714 16.9936L23.3764 22L33.3451 12.0312L30.7464 9.4325C30.6144 9.30737 30.5319 9.13137 30.5319 8.93475C30.5319 8.55662 30.8385 8.25 31.2166 8.25H31.2194H40.5694H40.5969C40.9613 8.25 41.2569 8.54562 41.2569 8.91V8.93887L41.25 8.9375Z" fill="#05074A"/>
</svg>
