<svg width="18" height="18" viewBox="0 0 18 18" fill="none" xmlns="http://www.w3.org/2000/svg">
<path fill-rule="evenodd" clip-rule="evenodd" d="M18 2.57143C18 1.15312 16.8469 0 15.4286 0H2.57143C1.15313 0 0 1.15312 0 2.57143V15.4286C0 16.8469 1.15313 18 2.57143 18H15.4286C16.8469 18 18 16.8469 18 15.4286V2.57143ZM2.77232 6.83839V15.4286H5.4442V6.83839H2.77232ZM2.55938 4.1183C2.55938 4.97009 3.25045 5.66518 4.10625 5.66518C4.96205 5.66518 5.65312 4.97411 5.65312 4.1183C5.65312 3.26652 4.95804 2.57143 4.10625 2.57143C3.25045 2.57143 2.55938 3.26652 2.55938 4.1183ZM12.7728 15.4286H15.4406V10.7196C15.4406 8.40536 14.9384 6.62545 12.2384 6.62545C10.9406 6.62545 10.0688 7.33661 9.71116 8.01161H9.675V6.83839H7.11563V15.4286H9.78348V11.1777C9.78348 10.0567 9.99643 8.97188 11.3866 8.97188C12.7527 8.97188 12.7728 10.2536 12.7728 11.25V15.4286Z" fill="#05074A"/>
</svg>
